<svg version="1" xmlns="http://www.w3.org/2000/svg" width="3012" height="3012" viewBox="0 0 2259.000000 2259.000000"><path d="M1201.9 708.5c-.3.3-7.5.7-16 1-29.7.8-47.5 1.5-52.9 2.1-3 .3-8.9.7-13 .9-4.1.2-11.5.6-16.5.9-8.2.5-12.8.9-25.5 2.1-2.5.3-7.4.7-11 1-3.6.3-7.6.7-9 1-1.4.2-4.5.7-7 1.1-2.5.3-5.6.8-7 1-1.4.2-5 .6-8 .9-3 .3-6.5.8-7.6 1-1.2.2-4.8.7-8 1-3.3.4-6.8.9-7.9 1.1-1.1.3-4 .7-6.5.9-5.5.7-18.7 2.6-21.5 3.1-1.1.2-4.2.7-6.9.9-2.7.3-5.2.7-5.5 1-.4.2-2.7.6-5.2.9-2.4.3-5.5.8-6.9 1.1-1.4.3-4.5.8-7 1.1-2.5.3-5.3.8-6.3 1-1 .3-3.2.7-5 .9-1.8.2-4.3.7-5.7 1-1.4.3-4.5.8-7 1-2.5.3-5.6.7-7 1-1.4.3-4.1.8-6 1.1-1.9.4-4.4.9-5.5 1.1-1.1.2-3.1.6-4.5.8-1.4.2-5 .9-8 1.5s-6.8 1.4-8.4 1.7c-1.6.2-7.2 1.3-12.5 2.4-5.3 1.1-10.9 2.2-12.6 2.4-1.6.2-5 .9-7.5 1.5-2.5.5-5.6 1.2-7 1.4-6.4 1.2-25.5 5.6-32 7.3-3 .8-6.4 1.6-7.5 1.7-4.3.4-14.6 2.9-15 3.6-.3.5-1.4.6-2.5.3s-2-.1-2 .3c0 .5-1.7 1-3.7 1.2-2.1.1-4.1.6-4.6 1.1-.5.5-1.6.7-2.3.4-.8-.3-1.4-.1-1.4.5s-.9.8-2 .5c-1.2-.3-2 0-2 .6 0 .7-.4.9-1 .6-.5-.3-1.5-.3-2.2.1-.7.4-2.3.9-3.6 1-1.4.2-3.2.6-4.1 1-.9.4-2.3.8-3.1.9-2.8.6-6.3 1.4-11.9 3.1-3.1.9-6.7 1.8-8.1 2.1-1.4.2-2.6.8-2.8 1.3-.2.5-.9.7-1.6.4-.7-.3-2.6.1-4.2.7-1.6.7-3.3 1.1-3.8 1-.4-.1-1.4.4-2.2 1-.8.6-1.4.9-1.4.6 0-.3-1.5-.1-3.2.4-1.8.6-6.4 1.9-10.3 3-3.8 1.1-7.7 2.2-8.5 2.6-.8.3-2.4.8-3.5 1-1.1.2-2.2.8-2.3 1.3-.2.6-.7.8-1.2.5-.7-.4-4.5.5-9 2.3-2.2.8-2.1.8-7.2 2.2-2.7.8-4.8 1.7-4.8 2 0 .3-1.2.6-2.7.7-1.5 0-2.9.6-3.1 1.2-.2.6-.7.9-1.2.6-.4-.2-4.1.7-8.1 2.1-8.3 2.9-9.6 3.3-10.7 3.5-.4 0-1.6.6-2.7 1.2s-2.2 1.2-2.5 1.2c-3.8.9-6 1.9-6 2.7 0 .5-.4.7-.8.4-1.2-.7-16.4 4.9-15.5 5.8.4.4.3.7-.2.6-2.3-.5-5.6.1-5.1.9.3.5-.6.8-2 .8-1.5 0-3 .6-3.4 1.3-.4.6-.9 1.1-1.1.9-.9-.6-7.9 2.4-7.9 3.3 0 .6-.3.9-.6.5-.8-.8-6.4 1.3-6.4 2.5 0 .5-.4.6-1 .3-.5-.3-2.2.1-3.7.9-1.6.8-4.9 2.3-7.5 3.3-2.5.9-4.4 2.2-4.1 2.7.4.5.1.6-.5.2-1.1-.6-14.1 5.1-15.3 6.7-.3.5-.9.8-1.3.7-1.3-.4-6.6 2.2-6.6 3.2 0 .5-.4.7-.9.3-.5-.3-1.7.2-2.5 1.1-.9.8-1.6 1.3-1.6 1 0-.7-8.2 3.2-9 4.3-.3.3-4.9 2.8-10.2 5.6-5.4 2.7-9.4 5.4-9.1 6 .4.5.3.7-.2.3-1.3-1.2-17.7 9-16.8 10.5.3.5.8.4 1.3-.3.4-.6 1-1.1 1.4-1 .8.2 9.9-3.2 10.6-3.9.3-.4 1.4-.8 2.5-.9 1-.2 3.7-1.2 6-2.2 2.2-1 8.7-3.5 14.5-5.5 5.8-2 11.9-4.2 13.5-4.8 1.7-.6 3.2-1.2 3.5-1.2 1.7-.2 10-3 10-3.5 0-.3 1.4-.6 3.2-.7 1.7-.1 3.4-.6 3.7-1.1.3-.4 1.5-.9 2.6-.9 1.1-.1 3.4-.7 5-1.4 1.7-.6 4.1-1.3 5.4-1.5 1.3-.2 2.7-.7 3-1.1.3-.4 1.9-.9 3.6-1.1 1.6-.2 3.2-.7 3.5-1 .3-.4 1.2-.7 2.1-.8 1.7-.1 21.5-5.2 23.9-6.1.8-.3 2.9-.7 4.5-.9 1.7-.3 3.1-.9 3.3-1.4.2-.5.9-.7 1.6-.4.6.2 3-.2 5.1-.9 2.2-.8 4.6-1.2 5.3-1 .6.3 1.2 0 1.2-.6s.7-.8 1.5-.5c.8.3 2 .2 2.7-.2.7-.4 1.9-.9 2.8-1 4-.5 9.6-1.7 10.5-2.2.5-.3 1.6-.7 2.5-.8 3.9-.5 12.2-2.5 13.8-3.2.9-.5 2.3-.7 3-.5.7.3 2 .2 3-.2.9-.4 3.1-.9 4.7-1.1 1.7-.3 8.2-1.5 14.5-2.9 6.3-1.3 13.1-2.6 15-3 3.1-.5 8.1-1.4 16-3 1.4-.3 4.3-.8 6.5-1.1 4.5-.5 8-1.2 8-1.4 0-.1 1.4-.3 3-.5 1.7-.2 4.6-.6 6.5-.9 1.9-.4 5.3-.9 7.5-1.2 2.2-.2 4.6-.7 5.3-.9.7-.3 3.9-.8 7-1.1 3.1-.3 6-.8 6.3-1 .3-.1 3.4-.6 7-.9 3.5-.4 7.1-.9 7.9-1.2.8-.3 3.3-.7 5.6-.9 2.2-.2 5.4-.6 7.1-.9 1.7-.2 5.1-.7 7.4-1 2.4-.3 9.8-1.3 16.4-2.1 6.6-.9 12.7-1.6 13.5-1.6.8 0 5.1-.5 9.5-1 4.4-.6 9.4-1.1 11-1.3 1.7-.1 3-.4 3-.5 0-.1 1.8-.3 4-.4 2.2-.2 7.2-.6 11-1 12.6-1.2 14.9-1.5 22-2.1 3.9-.3 8.8-.8 11-1 2.2-.3 7.8-.7 12.5-1.1 4.7-.3 9.6-.7 11-1 1.4-.2 7-.6 12.5-.9 5.5-.3 12-.8 14.5-1.1 2.5-.3 8.1-.7 12.5-.9 7.6-.4 16.3-.9 34-2 20.8-1.3 30.5-1.7 97.5-4 30.7-1.1 94.6-.6 126.5 1 6.1.3 17.5.8 25.5 1.1 27.5 1.2 45.9 2.1 53 2.8 3 .3 10.3.8 16.2 1.1 5.8.3 11.7.8 13 1 1.3.2 7.5.6 13.8 1 6.3.3 12.4.8 13.5 1 1.1.3 6.1.7 11 1.1 5 .3 11.5.8 14.5 1 3 .3 8 .7 11 .9 3 .3 7.1.7 9 .9 3.5.4 15.3 1.6 22 2.1 9.9.9 15.7 1.5 18.5 2 1.6.3 6.2.8 10 1.1 3.9.3 8.6.8 10.5 1 1.9.2 5.5.6 8 .8 2.5.2 8.2.9 12.6 1.5 4.5.7 8.6 1.1 9 1 .5-.1 1.1 0 1.4.1 1.2.4 4 .8 10.7 1.4 4 .3 7.8.8 8.5 1.1.7.2 3.8.6 6.8.9 3 .3 7.1.7 9 1 1.9.3 5.3.8 7.5 1 2.2.2 7.4.9 11.5 1.5 13.5 2 14.4 2.1 19.8 2.5 2.8.3 5.5.7 6 .9.7.5 10.5 1.7 16.3 2.2 1.4.1 3 .5 3.6.8.6.4 2.2.7 3.4.6 1.3 0 5.3.4 8.9 1.1 3.6.6 8.1 1.3 10 1.6 1.9.2 6 .9 9.1 1.4 3.1.6 7.4 1.3 9.5 1.5 2.2.3 8.8 1.3 14.9 2.4 6 1.1 11.2 1.9 11.5 1.8.3 0 2.1.3 4 .8 1.9.4 4.4.9 5.5 1 1.1.1 3.4.4 5 .8 1.7.3 4.6.8 6.5 1.1 1.9.3 5.9 1 8.9 1.6 2.9.5 5.7.7 6.2.4.5-.3.9-.1.9.5 0 .5.8 1 1.8 1 2.7.1 8.2 1 16.7 2.8 1.1.2 3.4.6 5 .8 1.7.2 4.1.7 5.5 1.1 1.4.3 3.7.7 5.1.9 1.5.2 3.6.6 4.7.9 3.1 1 17.7 3.6 22 3.9 1.2.1 2.2.5 2.2.8 0 .4 2.1 1 4.8 1.3 5.9.9 7.3 1.2 13.1 2.5 6.9 1.6 10.4 2.3 12.7 2.5 1.1.1 2.5.5 3.1.9.6.4 2.7.8 4.7.9 2 .2 3.6.7 3.6 1.2s.3.7.6.4c.3-.3 3 .1 6 .8 3 .8 5.9 1.2 6.3.9.5-.3 1.1-.1 1.3.4.3.8 5.7 2.1 10.6 2.4 1.2.1 2.2.5 2.2.8 0 .4 2.1 1 4.8 1.4 2.6.5 5.4 1 6.2 1.2.8.3 2.2.6 3 .7.8.2 3.5.9 6 1.5 2.5.7 5.2 1.4 6 1.6.8.2 4.2 1 7.4 1.8 3.3.9 6.3 1.4 6.7 1.1.4-.2 1 0 1.3.5.3.5 2.3 1.2 4.3 1.6 2.1.5 4.3.9 4.8 1.1.6.1 4.3 1.1 8.3 2.2 3.9 1.1 7.2 1.7 7.2 1.5 0-.3.6-.1 1.3.5 1.1.9 6.4 2.4 9.7 2.7.9 0 2 .4 2.5.7.6.3 5.5 1.8 10.9 3.2 5.4 1.5 16.4 4.7 24.4 7.1 8 2.4 14.9 4.2 15.3 3.9.4-.2.9.1 1.1.7.2.6 1.6 1.2 3.1 1.2 1.5.1 2.7.5 2.7 1 0 .4.3.6.8.5.4-.1 5.9 1.5 12.2 3.6 6.3 2.1 12.2 3.9 13 4.1.8.2 3.9 1.3 6.9 2.4 2.9 1.1 5.6 2 6 1.9.3-.1 2.4.7 4.5 1.6 2.2 1 4.8 1.9 5.7 2.1 1 .2 2.7.9 3.9 1.5 1.1.6 2.5.8 3 .5.6-.3 1-.2 1 .3 0 .9 7.8 3.7 9.3 3.4.4-.1.7.2.7.7 0 .8 1.3 1.3 7 2.6.3.1 2.2.9 4.4 1.8 2.1.9 4.4 1.7 5.2 1.7.7 0 1.6.5 1.9 1.1.4.6 1.4.8 2.2.5.8-.3 1.1-.1.8.4-.6.9 1 1.4 4.2 1.3.7-.1 1.1.3.8.7-.3.4.5 1 1.8 1.4 1.3.3 4 1.2 6 2.1 2 .8 3.8 1.4 4 1.3.2-.2 1.1.3 2 1 .9.8 2.2 1 2.8.6.7-.4.9-.3.6.3-.6.9 7.3 4.2 8.2 3.5.2-.2.7.1 1 .6.8 1.3 24 8.5 31.6 9.8 1.1.2 3.9.8 6.2 1.4 2.4.5 4.6 1 5 .9.5-.1 1 0 1.3.1 8.7 3.3 50.7 3.3 64.5-.1 2.2-.5 5.4-1.2 7-1.5 1.7-.3 3.2-1 3.3-1.5.2-.5 1.5-.9 2.8-.9 1.7 0 2.3-.4 1.8-1.2-.4-.7-.3-.8.4-.4 1.4.8 9.2-3 9.2-4.6 0-.6.3-.8.6-.5 1.1 1 4.5-1.3 3.8-2.5-.4-.6-.3-.8.4-.4 1.6 1 9.5-8.7 11.4-14.1 1.8-5.4 2.3-14.8.8-15.8-.6-.4-.8-1.1-.5-1.6.4-.5.3-1.5-.2-2.2-.4-.6-.8-1.4-.9-1.7-.8-4.2-8.3-16.2-9.6-15.3-.6.3-.8.1-.5-.4.6-1-8.1-11.3-9.6-11.3-.4 0-2-1.4-3.7-3.1-1.6-1.8-3-2.8-3-2.3s-.4.4-.8-.1c-1.5-2.2-9.6-7.4-10.5-6.8-.6.3-.7.1-.3-.5.3-.6-.3-1.4-1.6-1.8-1.2-.3-3.1-1.5-4.2-2.5-1.1-1.1-2.6-1.7-3.3-1.5-.7.3-1.7-.3-2.2-1.2-.6-.9-1.1-1.3-1.1-.9 0 .5-.7.1-1.6-.7-.8-.9-1.9-1.4-2.4-1.1-.5.3-1 .1-1.2-.5-.2-.6-1.3-1.2-2.5-1.4-1.2-.3-3.3-1.2-4.7-2.1-1.4-.9-3.1-1.3-3.8-.9-.7.4-1 .3-.5-.1.6-.7-2.8-2.4-7.8-3.9-.5-.2-1.9-.6-3-1-1.1-.5-3.7-1.4-5.8-2.2-2.1-.8-4.3-1.2-4.8-.9-.5.4-.9.2-.9-.3 0-.8-2-1.7-6-2.7-.3 0-3.1-1.1-6.3-2.3-3.2-1.2-6.3-2-6.8-1.7-.5.4-.9.2-.9-.4 0-.9-5.1-2.5-6.6-2.1-.4.1-1-.3-1.3-.8-.4-.6-1.8-1.3-3.1-1.5-1.4-.2-3.8-1-5.5-1.6-1.6-.7-4-1.4-5.2-1.4-1.3-.1-2.3-.5-2.3-1 0-.4-.3-.6-.7-.6-.5.1-1 0-1.3-.1-1.1-.4-3.6-1-5.5-1.2-1.1-.2-2.2-.6-2.5-.9-.4-.6-12.5-4.5-16.5-5.4-.5-.1-1.7-.5-2.5-.8-2.2-.9-23.2-7-25-7.2-.8-.1-2.2-.5-3-.8-.8-.4-2.4-.8-3.5-1-1.1-.2-2.7-.7-3.5-1-1.9-.7-16.7-4.7-19.7-5.3-1.2-.2-3.4-.9-4.8-1.4-1.4-.5-2.9-.9-3.3-.8-.4.1-1.4-.2-2.2-.5-3.6-1.5-38.2-9.7-39-9.2-.4.3-1 0-1.2-.5-.2-.6-1.9-1.2-3.8-1.4-1.9-.2-4.2-.6-5-.9-2.4-.9-19.2-4.7-27.5-6.3-3.1-.6-3.3-.7-7.5-1.7-1.4-.4-3.6-.9-5-1.1-1.4-.2-6.7-1.4-11.9-2.5-5.1-1.2-9.6-1.9-9.9-1.6-.3.2-1 .1-1.6-.4-.6-.5-3-1.1-5.4-1.5-2.4-.3-4.7-.8-5.1-1-.4-.3-2.5-.7-4.6-1-2.2-.2-7.3-1.2-11.3-2-4-.9-8.7-1.8-10.5-2.1-1.8-.3-5.4-.9-8-1.5-2.7-.5-5.1-.9-5.5-.8-.4.1-1.4-.1-2.2-.5-.8-.3-4.4-1-8-1.6-7.1-1.2-8.5-1.4-20.5-3.6-12.3-2.1-15.7-2.7-19.5-3.1-1.9-.2-5.5-.8-8-1.4-2.4-.6-5.3-.9-6.2-.7-1 .3-1.8.1-1.8-.3s-1.3-.7-3-.6c-1.6.1-3-.1-3-.4 0-.3-1.7-.7-3.9-.8-2.1-.2-4.9-.5-6.2-.7-1.3-.3-5.3-1-8.9-1.5-3.6-.6-7.8-1.2-9.5-1.5-1.6-.2-5-.7-7.5-1.1-2.5-.3-7.6-1-11.5-1.5-12.9-1.8-16-2.1-19.5-2.4-1.9-.2-3.5-.4-3.5-.5 0-.3-3.2-.8-9.2-1.5-3.2-.4-7.4-.9-9.3-1.1-9.2-1.2-13.8-1.7-17.5-2-2.2-.1-4-.4-4-.5 0-.1-1.6-.3-3.5-.5-7.2-.8-13.9-1.6-25-2.9-2.5-.4-6.7-.8-9.5-1-10.6-1-24.2-2.3-28.5-2.9-1.9-.3-6.9-.8-11.1-1.1-4.2-.3-8.7-.8-10-1-1.3-.2-6.3-.6-11.1-1-4.9-.3-9.7-.8-10.8-1-1.1-.2-7-.6-13.1-1-6.1-.3-11.4-.7-11.8-.9-.3-.2-6-.7-12.7-1-6.7-.4-13-.8-14.1-1-1.1-.3-7.4-.7-13.9-1.1-6.5-.3-13.5-.8-15.5-1-2-.2-9-.6-15.5-1-6.5-.3-15.7-.8-20.4-1-11.8-.7-27.3-1.4-42-2-6.9-.3-18.3-.7-25.5-1-7.1-.3-20-.8-28.5-1.2-20.3-.8-158.4-1.6-159.1-.8zM499.9 877.3c-1.4 1.2-2 1.9-1.4 1.5.6-.4 2.2-1.1 3.5-1.6 1.3-.5 1.9-1.1 1.4-1.5-.6-.3-2.1.4-3.5 1.6zM767.8 901.2c-2 .6-4.4 2.1-5.5 3.5-1 1.4-2.8 3.5-4 4.6-1.3 1.1-2.3 2.7-2.3 3.4 0 .7-.4 1.3-1 1.3-.5 0-1 .5-1 1.1 0 .6-.7 1.7-1.5 2.6-.8.8-1.2 2-.8 2.6.3.7.3.9-.2.5-.8-.8-5.1 5.1-4.7 6.5.1.4-.5 1-1.3 1.3-.8.4-1.5 1.2-1.5 1.9s-.7 1.8-1.5 2.5c-.9.7-1.3 1.5-1.1 1.7.3.3-.4 1.4-1.5 2.6-1 1.1-1.9 2.7-1.9 3.4 0 .7-.4 1.3-.8 1.3-.5 0-1.7 1.9-2.7 4.2-1 2.4-2.5 4.9-3.2 5.6-.7.7-1.3 2.2-1.3 3.3 0 1.1-.7 2.2-1.5 2.5-.8.4-1.2 1-.9 1.5.3.5 0 .9-.6.9s-.8.4-.5 1c.3.5.1 1-.5 1s-.8.4-.5 1c.3.5.1 1-.5 1s-.9.4-.6.9c.4.5.2 1.1-.3 1.3-.5.1-1.1 1-1.3 1.8-.2.8-.9 2.1-1.6 2.8-.7.8-1 1.8-.7 2.3.4.5.2.9-.2.9-.5 0-1.7 1.4-2.7 3.1-1.3 2.1-1.4 2.9-.5 2.3.7-.4.4.5-.9 2-1.2 1.6-1.9 3.2-1.6 3.7.3.5.2.9-.3.9-.8 0-3.6 5.4-3.3 6.6.1.4-.3 1-.8 1.3-1.1.7-4.6 8.2-4.4 9.3.1.5-.3.8-.8.8s-.9.3-.8.7c.1.5-.5 2.1-1.2 3.8-.7 1.6-1.3 3.3-1.2 3.7.1.5-.3.8-.9.8-.6 0-.8.7-.5 1.6.4.9.2 1.3-.5.8-.7-.4-1-.1-.7.7.3.8-.1 2-.8 2.7-.7.7-1 2-.7 2.9.4 1.1.3 1.4-.5.9-.7-.4-1.2-.1-1.2.7 0 .7-.9 3.1-1.9 5.3-1.1 2.1-1.7 4.2-1.4 4.6.2.5-.1.8-.7.8-.7 0-.9.7-.6 1.6.3.8.2 1.3-.3 1-.7-.5-1.6 1.5-2.6 5.4 0 .3-.7 1.6-1.5 3-.7 1.4-1.3 2.7-1.3 3 .1.3-.6 2.1-1.4 4-.8 1.9-1.6 3.9-1.7 4.5-.1.5-.5 1.6-.9 2.2-.5.7-.5 1.8-.1 2.5.5.7.3.8-.6.3-1-.6-1.2-.4-.7.8.3.9.1 1.7-.4 1.9-.6.2-1.2 1.5-1.2 3-.1 1.4-.6 2.4-1.1 2-.5-.3-.7.2-.3 1.1.4 1 .1 1.7-.5 1.7s-.8.3-.5.7c.4.3.3 1.1-.2 1.7-.6.7-1.2 2.4-1.5 4-.3 1.5-1 3.4-1.7 4.2-.6.8-.8 1.4-.4 1.4s.2.7-.5 1.5-.9 1.5-.5 1.5.2.7-.5 1.5c-.6.8-.9 1.9-.5 2.5.3.5.1 1-.5 1s-.9.4-.5.9c.3.5 0 1.3-.6 1.6-.5.4-.8 1.3-.5 2.1.3.8.2 1.4-.3 1.4s-1.2 1.5-1.6 3.2c-.9 3.7-1.2 4.7-1.5 5-.2.4-1.1 4.1-1.2 5.5-.1.7-.6 1.3-1.1 1.3-.5 0-.6.8-.3 1.7.4.9.2 1.9-.3 2.3-.6.3-1.2 1.5-1.4 2.5-.1 1.1-.5 2.4-.8 3-.4.5-1 2.3-1.4 4-.5 1.6-1 3.7-1.2 4.5-.3.8-.5 2.3-.6 3.2-.1 1-.4 1.8-.8 1.8s-1 1.5-1.4 3.2c-.4 1.8-.9 3.7-1.1 4.3-.1.5-.5 2-.8 3.3-.3 1.2-.8 2.7-1.1 3.2-.5.9-.8 1.9-1.8 6.5-.2.5-.6 1.6-1.1 2.3-.4.7-.5 1.6-.2 1.9.3.3.1 1.2-.4 1.8-.6.7-1.2 2.7-1.3 4.4-.1 1.7-.5 3.1-.8 3.1-.6 0-1.5 3.4-2.5 8.5-.1.5-.3 1.2-.4 1.5-.1.3-.4 1.4-.5 2.5-.2 1.1-1.1 4.6-1.9 7.8-.9 3.2-1.4 6.3-1 6.8.3.5 0 .9-.5.9-.6 0-1.1 1-1.1 2.2 0 2.3-.7 7.3-1 7.3-.1 0-.3 1.1-.5 2.5s-.7 5.2-1.2 8.5c-.9 6.5-.9 50.7 0 69.9.5 12-.1 14.8-3.1 13.8-.6-.2-1.2.2-1.2.9s-.3.9-.7.6c-.3-.4-1.2-.2-2 .4-.7.6-1.3.9-1.3.5 0-.3-2.4.4-5.2 1.5-9.6 3.9-17.5 2.6-19.9-3.3-.6-1.5-1.5-2.8-2-2.8s-.9-.7-.9-1.6c0-.9-.5-1.2-1.2-.8-.7.4-1 .4-.6 0 .8-1-3-8.6-4.4-8.6-.5 0-.6-.5-.3-1 .4-.6.2-1.6-.3-2.3-.8-1-3.2-7.3-3.8-10-.1-.4-.2-.8-.4-1-.1-.1-.3-.9-.5-1.7-.2-.8-.7-2.6-1-4-.6-2.7-1.2-5.8-2.1-13-.9-6.1-.9-38.8 0-47.5.7-7.7 1.4-13.5 2.1-17.4.2-1.4.7-4.6 1.1-7.1.3-2.5.8-5.6 1-7 .3-1.4.6-3.9.8-5.5.2-1.7.7-4.1 1-5.5.4-1.4.9-3.9 1.1-5.5.2-1.7.5-3 .6-3 .1 0 .3-.9.5-2 .1-1.1.5-3.1.9-4.5.3-1.4.7-3.7 1-5.2.2-1.5.6-3.5.9-4.5.3-1 .7-2.9 1-4.3.3-1.4 1.2-4.9 2-7.9s1.3-5.8 1-6.2c-.2-.4.1-1.1.7-1.4.5-.4.8-1.3.5-2.1-.3-.7-.1-1.6.5-2 .6-.3.8-1.2.5-2-.3-.7-.1-1.6.5-2 .6-.3.8-1.2.5-2-.3-.7-.1-1.6.5-2 .6-.3.8-1.2.5-1.9-.2-.7.1-1.8.7-2.4.6-.6.8-1.1.5-1.1-.4 0 .2-2.3 1.2-5 1.1-3 1.4-4.7.7-4.3-.8.4-.7.1.1-.9.7-.9 1.5-2.5 1.7-3.7.3-1.2.8-3.1 1.1-4.4.3-1.2.6-2.7.7-3.2.2-.6.6-1.6 1-2.3.5-.6.5-1.7.2-2.2-.3-.6-.1-1 .5-1 .7 0 1-.7.7-1.5-.4-.8-.2-1.7.4-2.1.6-.3.8-1.2.5-2-.3-.8-.2-1.4.2-1.4s1.2-1.6 1.8-3.5c.6-1.9.7-3.2.1-2.8-.5.3-.2-.5.6-1.8.9-1.3 1.7-3.5 1.9-4.9.2-1.4.7-2.8 1.1-3.1.5-.4 1-1.8 1-3.3.1-1.4.6-2.6 1-2.6s.7-.6.6-1.3c-.2-1.1 1.4-5.8 2.8-8 .4-.6.1-.7-.6-.2-.7.4-.5-.4.4-1.9 1-1.4 1.3-2.6.9-2.6-.5 0-.4-.4.1-.8 1.1-.7 5-12.1 4.7-13.5-.1-.4.3-.7.9-.7.6 0 .9-.7.5-1.5-.3-.8-.2-1.5.2-1.5s1.4-2.1 2.2-4.8c1.6-5.6 1.4-5 2.8-8.5.7-1.6 1-3.2.7-3.7-.3-.5-.1-1 .5-1.2.5-.1 1.1-1.4 1.4-2.8.2-1.4.5-2.6.7-2.8.1-.1.2-.5.3-1 .1-.4.5-1.3.9-2 .5-.6.5-1.7.2-2.2-.3-.6-.1-1 .4-1 .6 0 1.1-.9 1.1-2.1 0-1.1 1-4.1 2.2-6.7 1.2-2.6 2.1-5 2-5.5-.1-.4.3-.7.9-.7.5 0 .8-.4.5-.9-.4-.5-.1-1.1.4-1.3.6-.2 1.2-1.3 1.3-2.6 0-1.2.5-2.2 1-2.2.4 0 .5-.5.2-1-.3-.6-.2-1 .4-1 .6 0 .7-.7.4-1.7-.4-1.1-.3-1.4.5-.9.8.4 1.2 0 1.2-1.1 0-1 .7-2.9 1.6-4.1.8-1.2 1.2-2.7.8-3.4-.5-.7-.3-.8.6-.3 1 .6 1.2.4.7-.8-.3-.9-.1-1.7.4-1.9.6-.2 1.1-1 1.2-1.8.2-.8 1.7-4.3 3.5-7.8 1.7-3.4 2.9-6.2 2.6-6.2-.4 0-.2-.6.3-1.3 1.4-1.7 1.6-8.7.3-8.7-.6 0-.9-.4-.5-.9.3-.5-.7-1.9-2.2-3-1.6-1.1-3.3-2.5-3.9-3-.7-.6-1.5-.7-1.8-.4-.3.4-.6.1-.6-.6 0-.8-.6-1.1-1.6-.7-.9.4-1.3.2-.8-.5.4-.7.1-1-.7-.7-.8.3-2.4.1-3.6-.3-1.3-.5-2.5-.4-2.8.2-.4.5-1 .7-1.5.4-.5-.3-1.8.3-3 1.5-1.1 1.1-2.3 2-2.7 2.1-.5.1-.7.5-.6 1 .2.5-.3.8-1 .6-.6-.1-1.1.4-1 1 .2.7-.3 1.2-1 1-.6-.1-1.1.4-1 1 .2.7-.3 1.2-1 1-.6-.1-1.1.4-1 1 .2.7-.1 1.3-.6 1.3-.9 0-10.2 11.9-14.4 18.7-1.5 2.4-2.5 4.3-2.1 4.3.3 0-.2.7-1 1.6-.9.8-1.3 2-1 2.6.4.7.2.8-.4.4-1.1-.6-1.4 0-1.1 2 0 .4-.4 1-.9 1.3-.6.3-1.2 1.3-1.4 2.1-.2.8-1.1 2.3-2 3.4-1 1-1.5 2.3-1.2 2.8.3.4.1.8-.4.8-.4 0-1.4 1.6-2.2 3.5-.8 1.9-1.8 3.5-2.3 3.5-.5 0-.6.7-.3 1.6.3.8.2 1.3-.3 1-.4-.3-1.3.6-2 2-.9 2-.9 2.4.1 1.9.7-.4.4.1-.6.9-1.1.9-1.6 1.6-1 1.6.5 0 .4.4-.3.8-.6.4-1.3 1.6-1.5 2.7-.1 1.1-.5 2.2-.8 2.5-1.4 1.4-6.8 12.9-6.3 13.4.4.3.1.6-.6.6s-1.1.6-.8 1.2c.2.7-.3 1.9-1.2 2.6-1.3 1.1-1.3 1.2-.1.6 1.3-.7 1.3-.5 0 1.2-2.8 3.6-5.4 8.8-3.9 7.9.8-.5.7 0-.3 1.2-1 1.1-1.8 2.4-1.8 2.9s-.7 2.2-1.5 3.8c-.8 1.5-1.2 3.3-.8 3.9.4.6.1.7-.7.2-1-.6-1.2-.4-.7.8.3.9.1 1.7-.4 1.9-.6.2-1.1 1-1.3 1.8-.1.8-.8 2.6-1.5 3.9-1.1 1.9-1.1 2.2.1 1.5.9-.5.8-.1-.3 1.2-2.1 2.6-4 7.4-3.4 8.4.3.5 0 1-.6 1.2-.6.2-1.2 1.5-1.2 3-.1 1.4-.4 2.4-.6 2.2-.7-.6-3.1 6.9-2.5 7.8.3.4 0 .8-.6.8-.7 0-1 .7-.6 1.5.3.8.2 1.5-.3 1.5-.7 0-1.6 2.8-2.1 6.5-.1.2-.7 2-1.6 4-.8 1.9-1.1 3.5-.8 3.5.4 0 .1.7-.6 1.5-.6.8-.9 1.8-.6 2.3.3.5-.1 2.3-.9 3.9s-1.7 4-1.9 5.4c-.2 1.3-.5 2.4-.7 2.4-.1 0-.3.9-.4 2-.1 1.1-1 4.5-1.8 7.5-1.5 5.1-2.3 8.5-3.1 13.5-.2 1.1-.6 2.7-.9 3.5-.3.8-.8 3.1-1.1 5-.6 3.7-1.2 7.1-2.2 11.7-.3 1.6-.7 4.1-.9 5.8-.2 1.6-.6 4.1-.9 5.4-.3 1.4-.8 4.7-1.1 7.5-.3 2.8-.8 6.5-1.1 8.2-2.8 17.7-3.8 64.7-1.5 68.9.3.5.6 2.1.7 3.5.1 1.4.4 4.2.7 6.2.4 2.1.3 3.7-.1 3.7-2.5-.4-4.2.2-3.6 1.3.5.7.3.8-.5.4-.7-.5-1.9 0-2.7 1-.9 1.1-1.2 1.3-.9.6.6-1.1.3-1.1-1.3-.1-1.2.7-1.8 1.7-1.5 2.3.3.5.1.6-.5.2-.6-.3-1.6 0-2.4.6-.7.7-3.7 3.1-6.5 5.3-2.9 2.1-5.3 4.3-5.3 4.7 0 .4-.6.7-1.2.5-.7-.1-1.2.4-1 1.1.1.8-.2 1.1-.6.8-.5-.3-2.7 1.1-4.8 3.2-2.1 2-3.4 3-3 2.2.6-1 .2-.9-1 .3-1 1-2.8 2.5-3.9 3.3-1.1.9-1.4 1.2-.6.8 1-.5 1.2-.3.7.5-.5.7-1 1-1.3.7-.9-.9-4.4 1.4-3.8 2.5.4.5.3.8-.2.7-1.5-.4-5.4 2.3-4.7 3.4.4.6.3.8-.3.5-1.4-.9-5.5 2.2-4.7 3.5.4.6.2.8-.4.4-.5-.3-3 1.3-5.3 3.6-2.4 2.4-4 3.6-3.5 2.8.5-1.1.4-1.1-.6.1-.7.9-2.3 1.9-3.6 2.3-1.2.4-2.2 1.2-2.2 1.7 0 .6-.4.7-1 .4-.5-.3-1-.1-1 .5s-.4.8-1 .5c-.5-.3-1-.2-1 .4 0 .6-.6.8-1.4.5-.8-.3-1.7 0-2.1.5-.3.6-1 .9-1.4.6-.5-.2-2.2 0-3.9.5-2 .5-3.4.5-3.8-.1-.3-.5-1-.7-1.5-.3-.5.3-.9.2-.8-.3.1-.4-.3-2-.8-3.4-.6-1.4-1.4-5-1.8-8-.9-6.6-1-38.2-.1-42.4.3-1.7.8-4.1 1.1-5.5.3-1.4.7-3.6 1.1-5 .3-1.4.7-3.4.9-4.5.2-1.1.7-3.1 1-4.5.4-1.4.7-3.2.8-4 .1-.8.5-1.7.9-2 .4-.3.9-1.9 1.2-3.5.2-1.7.5-3.1.6-3.3.2-.1.3-.5.4-1 .2-.4.8-2.5 1.4-4.7.6-2.2 1.1-4.3 1.2-4.8 0-.4.7-2.1 1.5-3.7.9-1.7 1.3-3.5 1-4-.3-.6-.2-1 .3-1 .6 0 1.3-.7 1.6-1.6.4-1 .2-1.3-.7-.8-.6.4-.4-.2.6-1.4 1.1-1.1 1.6-2.6 1.2-3.1-.3-.6-.2-1.1.3-1.1.6 0 1.3-.7 1.6-1.6.4-1 .2-1.3-.7-.8-.6.4-.5-.1.4-1.2 1.5-1.7 3.5-6.5 3-7.2-.1-.1.5-1 1.4-1.8.8-.9 1.3-2 1-2.5-.4-.5-.1-.9.4-.9.6 0 1.1-.6 1.1-1.4 0-.8.7-2.2 1.6-3 .8-.9 1.2-2.1.8-2.7-.4-.7-.3-.9.4-.5.6.3 1.4-.4 1.7-1.6.4-1.3 1.4-3.1 2.3-4.1.8-.9 1.1-1.7.6-1.7-.5 0-.4-.4.1-.8 1.5-1 7-9.5 7-10.7 0-.6.8-1.6 1.8-2.3.9-.7 1.5-1.7 1.2-2.2-.3-.4.2-1.1 1.1-1.4.9-.4 1.4-1.3 1-2.2-.3-.8-.2-1.3.3-1 .8.5 2.8-2.8 2.9-4.8 0-.5.4-1.2.9-1.5 1.6-1 8.6-14.4 7.1-13.5-.9.6-.9.3.2-1 3.9-4.8 2.9-16.2-1.8-20.6-1.4-1.4-1.5-1.3-.2.5.7 1.1 0 .5-1.8-1.3-1.7-1.7-3.6-3.3-4.1-3.3-1.9-.3-2.6-.4-3.6-1-2.3-1.3-14.6-1.6-21-.5-2.2.4-4.8.7-5.7.7-1 0-1.8.4-1.8.9s-.7.6-1.7.3c-1.2-.5-1.4-.3-.8.7.6.9.4 1.1-.4.6-.7-.5-1.9 0-2.7 1-.9 1.1-1.2 1.3-.9.6.6-1.1.3-1.2-1.3-.3-2.6 1.4-7.2 7.3-7.2 9.2 0 .8-.5 2-1.1 2.6-.6.6-1.1 1.7-1.3 2.4-.1.8-1 2.9-1.9 4.7-1 1.8-1.5 3.8-1.1 4.4.5.7.3.8-.6.3-1-.6-1.2-.4-.7.8.3.9.2 1.7-.4 1.9-.5.2-1.1 1.4-1.4 2.7-.2 1.2-.9 2.9-1.5 3.6-.5.6-1.1 2.4-1.2 3.8-.1 1.4-.6 2.3-1 2.1-.7-.5-1.2 1.3-1.1 4.3.1.7-.3 1-.8.7-.5-.3-1 .2-1 1-.2 1.7-.5 3.3-.9 4.1-.1.3-.3.8-.4 1.2-.1.5-.7 1.8-1.4 2.9-.6 1.2-.8 2.4-.5 2.8.3.3.1.6-.6.6s-1 .4-.6.9c.3.5 0 1.3-.6 1.6-.5.4-.8 1.3-.5 2.1.3.8.2 1.4-.2 1.4-1.1 0-3.2 6.1-2.5 7.3.4.6.1.7-.6.3-.8-.5-1.1-.3-1 .5.2.8-.5 2.9-1.4 4.6-1 1.8-1.5 3.3-1.1 3.3.4 0 .1.7-.6 1.5-.7.9-1 1.8-.7 2.1.3.4-.1 1.3-.9 2.1s-1.2 1.8-.9 2.3c.3.5.1 1.1-.4 1.5-.6.3-.7 1.3-.4 2.2.4 1 .2 1.4-.4 1-1.1-.7-2.8 4.5-2.4 7.2.1.7-.2 1-.8.6-.6-.3-1.2.1-1.2.9-.2 2.4-.4 2.9-1.6 5.1-.6 1.1-.9 2.8-.8 3.7.2 1 0 1.8-.5 1.8-.4 0-.7 1.2-.8 2.7 0 1.6-.1 3-.2 3.3-.1.3-.4 1.8-.5 3.5-.2 1.6-.6 4.8-1 7-1.7 10.9-2.3 31.3-1.2 40.5.4 3 .9 6.8 1 8.5.1 1.6.5 3.4.8 4 .3.5.4 2 .3 3.2 0 1.3.2 2.3.7 2.3.5 0 .6.7.3 1.5-.4.8-.1 2.1.5 2.9.6.7.8 1.6.5 1.9-.3.3-.2 1.2.2 1.9.5.7 1 1.9 1.1 2.5.7 3.1 1.2 4.8 1.3 4.8.1 0 .3.8.5 1.7.2.9 1 3.1 1.8 4.7.9 1.7 1.8 4.4 2.2 6.1.4 1.8 1.1 2.7 1.7 2.4.7-.5.8-.2.4.5-.5.7 0 2.1 1 3.2.9 1 1.3 1.9.8 1.9s-.4.4.2.8c.5.4 1.7 2.3 2.6 4.2 3.2 6.6 17.2 19.3 19.2 17.3.3-.4.6-.1.6.6 0 .8.7 1.1 1.5.7.8-.3 1.5-.2 1.5.3s1.7 1.2 3.8 1.6c2 .4 4.8.9 6.2 1.2 5.1 1.1 15.5 0 17.7-1.9.7-.6 1.3-.8 1.3-.4 0 .3 2.7-.8 6-2.5s6-3.4 6-4c0-.5.7-.9 1.5-.9s1.5-.6 1.5-1.4c0-.8.5-1.8 1.2-2.2.7-.5.8-.3.3.7-.8 1.2-.6 1.2.8 0 .9-.7 1.4-1.7 1.1-2.2-.3-.5 0-.8.8-.7.7.2 1.2-.3 1.1-.9-.2-.7.3-1.2 1-1 .6.1 1.1-.4 1-1-.2-.7 0-1.2.5-1 .4.1 1.7-.8 3-2.1 1.2-1.2 1.9-2.2 1.6-2.2-.4 0 .5-.9 2-2.1 1.4-1.1 2.3-2.6 1.9-3.2-.3-.7-.3-.9.1-.5.7.6 5.6-3.4 5.6-4.6 0-.3 1.2-1.9 2.8-3.5 4.6-5 8.7-10.4 8.5-11.3-.2-.4.2-.7.9-.5.7.1 1.2-.3 1.3-.8 0-.6 1.5-2.5 3.2-4.4 1.8-1.9 3-3.8 2.8-4.2-.3-.4.2-1 1.1-1.3.8-.3 1.2-1.1.8-1.7-.4-.8-.3-.9.4-.5.6.4 1.6-.4 2.3-1.6.7-1.3 1-2.4.8-2.5-.2-.1 0-.5.5-1s.6-.2.2.7c-.4.8.2.4 1.3-1 2-2.4 2.5-3.6 2.2-5.3-.1-.5.3-.6.8-.3.8.6 2.6-2.1 2.3-3.6-.1-.3.5-.9 1.3-1.2 1-.4 2 .6 3 3.1.8 1.9 1.5 3.9 1.5 4.3 0 .4.7 1.3 1.5 2s1.2 1.6.9 2.1c-.3.5 0 .9.6.9s.8.5.4 1.1c-.3.6 0 1.5.7 2 .8.4 1.4 1.2 1.4 1.6.2 2.2 1.8 5.3 2.7 5.3.6 0 .8.3.5.7-.4.3.3 1.8 1.5 3.1 1.3 1.4 1.7 2.2 1 1.8-1.6-.9 4.5 8.8 10.6 16.9 5.3 7 12.8 14.6 13.6 13.7.3-.3.6-.1.6.5 0 1 4.9 3.8 6.3 3.5.4-.1.7.2.7.7 0 .7 7.4 4.1 10.3 4.7.4.1.9.3 1.2.4.3.1 1 .4 1.5.5.6.1 1.1.3 1.3.5 1.9 1.5 11.2 1.3 18.7-.5 1.4-.3 4-.8 5.9-1.1 1.9-.2 3.8-.7 4.4-1.1.6-.3.7-.1.3.5-.4.7-.2 1.2.3 1.2.6 0 1 .3.9.7-.5 1.8 1.4 5.3 2.4 4.7.7-.5.9-.1.5.9-.3 1-.3 1.7.1 1.7.5 0 1.4 1.6 2.2 3.5.8 1.9 1.7 3.5 2.2 3.5.4 0 .8.5.8 1.1 0 1.9 10.4 16.9 11.7 16.9.7 0 1.2.6 1 1.2-.1.7.4 1.2 1.1 1 .8-.1 1.1.1.8.6-.7 1.2 14.2 15.1 20.4 19.1 1.4.8 2.9 2.1 3.3 2.8.4.7 1.3 1.3 1.8 1.3.6 0 1.7.7 2.6 1.5.8.8 1.8 1.3 2.3 1 .4-.3 1 .1 1.3.9.5 1.3 8.7 6.1 8.7 5 0-.3.7.2 1.6 1 .8.9 2 1.4 2.5 1.1.5-.4.9-.2.9.2 0 .5 2.1 1.5 4.8 2.2 2.6.8 5.2 1.8 5.7 2.2.6.4 2.6 1.1 4.5 1.4 1.8.3 3.6.8 4 1 .9.5 5.9 1.6 9.5 2 1.7.2 3 .4 3 .5 0 .8 19.7 1.9 20.9 1.2.6-.3 1.9-.6 3-.8 4-.3 10.1-1.6 11.6-2.4.8-.4 2-.9 2.5-.9 3.2-.5 5.5-1.4 5.5-2.3 0-.5.5-.6 1-.3.6.3 1 .1 1-.5s.4-.9.9-.6c1 .7 6.2-5 5.4-5.8-.4-.3-.1-.6.5-.6.7 0 1.1-.3 1-.8 0-.4.2-1.5.7-2.5 1.4-3.3-1-4.2-9.8-3.8-14.4.7-37 .5-42.2-.3-2.7-.5-5.6-.9-6.2-.9-.7 0-1.3-.5-1.3-1s-.7-.6-1.5-.3c-.9.3-2.3.2-3.3-.3-4.7-2.5-8.7-3.9-9.6-3.4-.5.4-.6.1-.1-.7.6-1 .4-1.2-.9-.7-1 .4-1.5.3-1.1-.3.6-.9-.8-1.4-2.8-1.1-.5.1-.6-.2-.4-.6.3-.5-1.3-2.2-3.4-3.8-2.1-1.7-3.8-3.6-3.9-4.4 0-.8-.3-1.1-.7-.8-.6.6-1.7-.8-5.5-6.8-.7-1.1-2.1-2.7-3.1-3.7-1-.9-1.8-1.9-1.8-2.2.3-2 0-2.6-.9-2.1-.6.3-.7-.1-.4-.9.3-.9 0-1.8-.8-2.1-.8-.3-1.5-1.5-1.5-2.8-.1-1.2-.7-2.3-1.3-2.5-.5-.2-1-1.2-1-2.3 0-1-.5-1.9-1.2-1.9-.6 0-.8-.3-.5-.6.3-.4.1-1.6-.5-2.8-.7-1.1-1.3-3-1.5-4-.2-1.1-.8-2.5-1.4-3.3-.6-.7-.9-1.3-.6-1.3.3 0-.1-2.2-.8-4.8-1.4-4.5-1.8-6.8-3.1-16.2-.9-6.1-.3-37.5.6-37.5.1 0 .3-1.6.5-3.5.7-6.9 1.5-13.5 2-15 .2-.8.7-3.1.9-5 .3-1.9.8-5.1 1.2-7 .4-1.9.7-4.4.8-5.5 0-1.1.4-2.2.8-2.5.4-.3.9-2.3 1.2-4.5.2-2.2.5-4 .7-4 .1 0 .3-.9 1.3-6 .2-1.1.6-2.7 1-3.6.4-.9.9-2.9 1.1-4.5.2-1.6.4-3 .6-3.2.1-.1.3-.7.4-1.2.1-.6.3-1.1.5-1.3.2-.3 1-3.6 1.5-6.2.2-1.1.4-2.1.5-2.3.2-.1.3-.5.4-1 .1-.4.5-1.3.9-2 .5-.6.6-1.2.3-1.2s-.1-1.2.5-2.8c1-2.4 1.4-4.1 2.2-7.7.2-.6.6-1.6 1-2.3.5-.6.6-1.2.2-1.2-.3 0 .1-1.6.9-3.5s1.2-3.5.9-3.5c-.3 0 0-.7.7-1.5.7-.9 1-1.8.7-2.2-.4-.3-.2-1.1.3-1.8.5-.6 1.1-2 1.3-3.1.2-1 .9-3.2 1.6-4.8.6-1.6.9-3.1.6-3.4-.2-.3-.1-1 .4-1.6.8-1.1 3.1-7.6 3.5-9.9.1-.7.5-1.7.8-2.3.4-.6.9-2.2 1.2-3.6.2-1.5.9-3.6 1.6-4.7.6-1.2.8-2.6.5-3.1-.3-.6-.2-1 .3-1 .9 0 2.6-5.3 2.5-7.8 0-.6.3-1.2.8-1.2s.8-.3.7-.8c0-.4.2-1.6.6-2.7 3.1-8.1 3.6-9.7 3.1-10.6-.4-.5-.1-.9.4-.9.6 0 1.1-.9 1.1-1.9 0-1.1.5-2.3 1.1-2.6.6-.4.8-1.3.5-2.1-.3-.8 0-1.4.6-1.4s.8-.3.5-.7c-.4-.3-.2-1.1.3-1.8.5-.6 1.1-2 1.3-3.1.2-1 .9-3.2 1.6-4.8.6-1.6.9-3.1.6-3.4-.3-.3.2-1.3 1-2.2.9-1 1.5-2.1 1.4-2.6-.2-.5.5-2.6 1.4-4.8.9-2.1 1.4-4.2 1.1-4.7-.3-.5 0-.9.6-.9.7 0 1-.7.6-1.5-.3-.8-.1-1.5.4-1.5.6 0 1-.8 1-1.8s.5-2.3 1.2-3c.7-.7.9-1.2.5-1.2s-.1-1.4.8-3c.9-1.7 1.3-3 1.1-3-.3 0 .4-2 1.5-4.5s1.7-5 1.3-5.7c-.5-.7-.3-.8.6-.3 1 .6 1.2.4.7-.8-.4-1-.1-1.7.5-1.7s.8-.3.5-.7c-.4-.3-.2-1.2.4-2 .6-.7.9-1.3.5-1.3s0-1.3.8-2.9c.9-1.6 1.2-3.1.9-3.5-.4-.3-.1-.6.5-.6.7 0 1.1-.3 1-.8-.2-1.1 1.4-6.6 2.3-7.7.4-.6.8-1.3.8-1.7.2-1.1 1.2-4 2.1-6.3 1.5-3.6 3.4-10 3.2-10.8-.1-.4.3-.7.9-.7.6 0 .8-.9.4-2.1-.5-1.5-.4-1.9.4-1.5.6.4 1.2 0 1.2-.8.2-1.7.5-3.3.9-4.1.1-.3.3-.8.4-1.3.1-.4.5-1.3.9-2 .5-.6.5-1.7.1-2.4-.5-.7-.3-.8.6-.3 1 .6 1.2.4.7-.8-.3-1-.2-1.7.4-1.7.5 0 .9-.6.7-1.3-.1-.6.3-2.2 1-3.5.7-1.2 1.1-2.2.8-2.2-.3 0 .2-1.6 1-3.5s1.1-3.5.8-3.5c-.4 0-.2-.6.4-1.3 1-1.2 2.7-7.6 2.4-9-.1-.4.3-.7.8-.7.6 0 1-.6.8-1.3-.1-.6.8-4.1 1.9-7.7 1.2-3.6 2.4-7.7 2.7-9.2.2-1.4 1-3.6 1.6-4.8 1-1.8 1-2.1-.2-1.4-1.1.7-1.1.5 0-.9 1.5-1.8 2.1-5.4 2.9-16.5.4-6.2.2-7.7-1.4-9.4-1-1.2-1.2-1.8-.4-1.3 1 .5 1.2.4.7-.3-.4-.7-1.4-1.2-2.2-1.2-.8 0-1.4-.4-1.4-.9 0-.9-2.1-1.9-4.5-2.2-.5 0-1.7-.4-2.5-.8s-3.2-.4-5.2.1zM1.3 916.5c.6 1.1 1.2 2.2 1.2 2.5.3 2.6 3.1 10 3.7 10 .4 0 .8 1.1.8 2.4 0 1.4.5 2.8 1 3.1.6.4.8 1.1.5 1.6-.4.5-.2.9.2.9.5 0 1 1 1 2.2.1 1.3.7 2.4 1.2 2.6.5.2.8.9.5 1.7-.3.7 0 1.6.5 2 .6.3.9 1.1.6 1.6-.4.5-.2.9.4.9.6 0 .8.7.5 1.5-.4.8-.1 1.5.6 1.5.6 0 .8.4.5 1-.3.5-.1 1 .5 1s.9.4.6.9c-.3.5.2 2.6 1.1 4.7.9 2.2 1.7 4.1 1.8 4.4.6 3.2 3.1 10 3.7 10 .4 0 .8 1.1.8 2.5s.5 2.5 1.2 2.5c.6 0 .9.3.5.6-.3.4 0 2.3.8 4.3 1.8 4.9 2.5 7.1 2.3 7.4-.1.1.5 1.3 1.2 2.7.8 1.4 1.5 2.8 1.6 3.2.1.5.3 1 .4 1.3.1.3.4.9.5 1.5.1.5.4 1.3.5 1.7.1.5.2 1.1.1 1.5 0 .5.4.8.9.8s.9.3.9.7c-.1.5-.1 1 .1 1.3.1.3.4 1.6.6 2.9.2 1.4 1 3.2 1.7 4 .8.9 1.4 2.7 1.5 4.1.1 1.4.6 2.6 1.2 2.8.5.2.7.8.4 1.3-.3.6-.1 1.6.6 2.4.6.7 1.3 2.6 1.6 4.1.3 1.6 1 3.4 1.6 4.1.6.7.7 1.3.3 1.3-.4 0-.2.6.4 1.3.6.8.8 1.7.4 2-.3.4-.1.7.6.7s.9.4.6 1c-.3.5-.2 1 .4 1 .6 0 .8.7.5 1.5-.4.8-.1 1.5.5 1.5s.8.7.5 1.5c-.4.8-.1 1.5.7 1.5.7 0 1 .3.6.6-.3.3.2 2.7 1.2 5.3 2.3 5.9 2.8 7.4 3 8.4 0 .4.8 2.1 1.6 3.7.9 1.7 1.3 3 .9 3s-.1.6.5 1.3c.6.8.8 1.7.4 2-.3.4 0 .7.7.7s1 .3.7.6c-.3.4-.2 1.5.4 2.6.6 1.1 1.2 2.7 1.5 3.6 1 4.2 3 9.2 3.6 9.2.4 0 .5.7.2 1.5-.4.8-.1 1.5.5 1.5s1 .3.9.7c-.4 1.5 2.6 10.3 3.5 10.3.5 0 .7.6.4 1.4-.3.8.1 2 .8 2.6.8.7 1.2 1.6.9 2.2-.3.5 0 1.5.6 2.3.7.8.9 1.5.5 1.5-.5 0-.1.8.8 1.8 1 1 1.5 2.1 1.2 2.4-.3.3 0 1.8.6 3.4.7 1.6 1.2 3.2 1.1 3.6-.1.5.2.8.8.8.6 0 .9.3.9.7-.3 1.7 1.4 7.3 2.2 7.3.5 0 .6.7.3 1.5-.4.8-.1 1.5.6 1.5.6 0 .9.3.7.7-.3.5 0 1.9.6 3.3.5 1.4 1.1 3.2 1.3 4 .2.8.8 1.6 1.4 1.8.5.2.7.8.4 1.3-.3.6 0 1.7.8 2.6.7.9 1.1 1.7.9 1.7-.4.1.6 4.1 1.9 7.1 1.4 3.3 2.3 5.9 2.6 7.5.2.8.7 1.6 1.3 1.8.5.2.7 1 .4 1.8-.3.8 0 1.4.7 1.4.6 0 .9.4.6.9-.3.5.2 2.6 1.1 4.7.9 2.2 1.6 4.2 1.5 4.6-.1.5.3.8.9.8.5 0 .7.5.4 1-.4.6-.1 1.7.5 2.5.7.8.9 1.5.6 1.5-.4 0-.1 1 .6 2.2.7 1.3 1.3 2.6 1.4 3 .1.5.2.9.3 1 .2.2.5 1.4.7 2.8.3 1.4.9 2.6 1.4 2.8.5.2.6 1 .3 1.8s0 1.4.7 1.4c.6 0 .8.4.5 1-.3.5-.2 1 .3 1 .6 0 .9.6.9 1.2-.1 2.5 1.6 7.8 2.5 7.8.5 0 .7.4.3.9-.3.5-.1 1.2.5 1.6.6.4.8 1.1.5 1.6-.4.5-.1.9.5.9s.9.4.6.8c-.3.5.1 2 .9 3.5.7 1.4 1.1 2.8.7 3.1-.3.3 0 .6.7.6s.9.5.6 1c-.4.6-.1 1.7.5 2.5.7.8.9 1.5.5 1.5-.5 0 0 1 1.1 2.2 1 1.2 1.3 1.8.7 1.4-.9-.5-1.1-.2-.7.8.3.9 1 1.6 1.6 1.6.5 0 .6.5.3 1-.4.6-.1 1.7.5 2.5.7.8.9 1.5.6 1.5-.4 0-.1 1 .6 2.2.7 1.3 1.1 2.6 1 3-.1.5.2.8.8.8.5 0 .7.6.4 1.4-.3.8 0 1.7.5 2.1.6.3.9 1.1.6 1.6-.4.5-.1.9.5.9s.8.5.4 1.1c-.3.6-.2 1.4.4 1.8.7.4 1.4 1.8 1.6 3.1.2 1.4.5 2.7.6 3 .2.3.2.8.1 1.2 0 .5.4.8.9.8s.9.3.9.7c-.1.5 0 1.1.1 1.5.1.5.4 1.2.5 1.8.1.5.4 1.2.5 1.5.1.3.4.9.5 1.5.1.5.3 1.1.5 1.2.1.2.3 1.2.5 2.2.2 1 .7 2.2 1.2 2.5.4.3.9 1.7 1.1 3.1.2 1.4 1 3.5 1.8 4.7.8 1.3 1.2 2.3.8 2.3-.4 0-.1.7.6 1.5s1 1.5.6 1.5.1 1.5 1.1 3.2c.9 1.8 1.6 4.1 1.4 5-.1 1 .3 1.8.9 1.8.6 0 .8.4.5 1-.3.5-.1 1 .5 1s.8.4.5 1c-.3.5.1 1.9.9 3.1.8 1.2 1.2 2.8.9 3.5-.3.8 0 1.4.7 1.4.6 0 .8.4.5 1-.3.5-.2 1 .4 1 .6 0 .8.7.5 1.5-.4.8-.1 1.5.6 1.5s1 .6.7 1.4c-.3.7.2 2.4 1.1 3.7.9 1.3 1.5 2.5 1.3 2.7-.3.3.1 1.4 2.5 7.7.4 1.1.8 2.3.9 2.7.2.5.4 1 .5 1.3.4.8.7 2.4.9 4.1.1.9.6 1.2 1.4.8.6-.4.9-.4.5.1-.4.4-.1 2.2.7 4 .7 1.9 1.1 3.6.7 3.9-.3.3 0 .6.7.6s1 .4.7.8c-.3.5.1 2 .9 3.5.7 1.4 1.1 2.8.7 3.1-.3.3 0 .6.6.6.7 0 1.1.3 1 .7-.4 1.6 1.4 7.3 2.2 7.3.5 0 .7.7.4 1.5-.6 1.3 6.9 1.5 65.2 1.3 43.1-.2 65.9-.6 65.9-1.3 0-.6.4-1.6.8-2.3.5-.6.5-1.7.2-2.2-.3-.6-.2-1 .3-1 .8 0 1.8-3 2.2-6.8.1-.4.7-1.4 1.4-2.2.8-.8 1.2-2.3 1.1-3.3-.2-.9.1-1.7.6-1.7s.8-.3.7-.8c-.1-.4.3-1.7 1-3 .7-1.2 1-2.7.7-3.2-.3-.6-.1-1 .5-1 .7 0 1-.6.7-1.4-.3-.8-.2-1.6.3-1.8.5-.2 1.1-1.2 1.3-2.3.2-1.1.9-3 1.5-4.3.7-1.2 1-2.7.7-3.2-.3-.6-.1-1 .5-1 .7 0 .9-.7.6-1.6-.3-.8-.2-1.2.4-.9.9.5 1.5-2.3 1.1-4.8 0-.4.4-.7.9-.7.6 0 1-.8 1-1.8 0-.9.7-3 1.5-4.6.8-1.5 1.5-3.2 1.5-3.6 0-.5.5-2.1 1.2-3.7.6-1.5 1.2-3.3 1.4-3.8.1-.6 1.2-3.4 2.2-6.3 1.1-2.8 1.8-5.2 1.6-5.2-.2 0 .2-1 1-2.3 1.1-1.8 2.1-4.5 3.1-8.7 0-.3.6-1.5 1.3-2.6.6-1.2.8-2.4.5-2.8-.3-.3-.1-.6.5-.6s.9-.9.7-2c-.2-1.1 0-1.8.4-1.5.5.2 1.2-1 1.6-2.8.8-3.5.8-3.4 1.9-5.9.4-.9.9-2.2 1-3 .2-.7.8-2.7 1.5-4.3 2.4-5.6 4.2-11 4.4-12.5.1-.8.6-1.8 1.1-2.2.5-.3 1-1.4 1.1-2.5.1-1 .6-2.8 1.3-3.9.6-1.2.8-2.4.5-2.8-.3-.3-.2-.6.4-.6.5 0 1-.6 1-1.4 0-.8.7-3 1.7-5 .9-2 1.4-4.1 1-4.8-.5-.7-.3-.8.6-.3 1 .6 1.2.4.7-.8-.3-.9-.2-1.7.3-1.9.5-.2 1.1-1.4 1.3-2.8.3-1.4 1.4-4.6 2.6-7.3 1.1-2.6 1.8-4.7 1.4-4.7-.3 0 0-.7.7-1.5.6-.8.9-1.8.6-2.4-.3-.5-.1-1.1.4-1.3.6-.2 1.2-1 1.4-1.8.2-.8.6-2.3 1-3.2.4-.9.9-2.2 1-3 .2-.7.8-2.4 1.3-3.8.6-1.4.9-2.8.6-3.3-.2-.4 0-.7.6-.7.5 0 1.3-1.5 1.6-3.3.4-1.7 1.2-3.8 1.8-4.5.5-.7.7-1.5.4-1.9-.4-.3 0-1.5.8-2.5.7-1.1 1.1-2.7.8-3.6-.4-1-.2-1.3.5-.8.7.4 1.2.1 1.2-.8 0-2.6.1-3 1.2-4.4.6-.6.7-1.2.3-1.2-.4 0-.2-.7.5-1.5.6-.8.8-2 .4-2.6-.5-.8-.3-.9.6-.4 1 .6 1.2.4.7-.8-.4-1-.2-1.7.4-1.7.6 0 .9-.6.6-1.4-.3-.8-.2-1.6.3-1.8.5-.2 1.1-1.2 1.3-2.3.2-1.1.9-3 1.5-4.3.7-1.2 1-2.2.6-2.2-.3 0-.1-.6.5-1.3.6-.8 1.2-2.2 1.4-3.3.2-1 1.1-3.7 2.1-5.9s1.8-4.8 1.9-5.8c.1-.9.6-1.7 1.1-1.7.5 0 .6-.3.3-.7-.4-.3-.2-1.2.4-2 .6-.7.9-1.3.5-1.3s.3-1.8 1.4-4c1.1-2.3 1.8-4.5 1.5-5-.3-.6-.1-1 .5-1 .7 0 1-.6.7-1.4-.3-.8-.2-1.6.3-1.8.5-.2 1.1-1.2 1.3-2.3.2-1.1.9-3 1.5-4.3.7-1.2 1-2.7.7-3.2-.3-.6-.1-1 .5-1 .7 0 .9-.7.6-1.6-.3-.8-.2-1.3.3-1 .5.3 1.4-1.6 2.2-4.2 1.5-5.7 1.3-5 2.8-8.7.7-1.7 1.4-3.7 1.6-4.7.2-.9 1.1-3 2-4.7.9-1.8 1.3-3.6 1-4.1-.3-.6-.1-1 .5-1s.9-.4.5-.9c-.3-.5 0-1.3.6-1.6.5-.4.8-1.3.5-2.1-.3-.8-.2-1.4.3-1.4.7 0 1.7-2.3 2.6-6 0-.3.7-1.6 1.4-2.9 1.1-1.9 1.1-2.2-.1-1.5-.7.4-.4-.2.6-1.4 1.1-1.2 1.6-2.2 1.1-2.2-.4 0-.2-.7.5-1.5.6-.8.9-1.9.5-2.5-.3-.5-.3-1 .2-1 .7 0 2.6-4.4 3.8-9 .2-.8.4-1.7.5-2 .1-.3.2-.8.1-1.3 0-.4.4-.7 1.1-.7.6 0 .9-.3.5-.6-.3-.4 0-1.9.9-3.5.8-1.6 1.2-2.9.8-2.9-.4 0-.1-.7.6-1.5.6-.8.9-1.9.5-2.5-.3-.5-.2-1 .2-1 1.3 0 4.4-9 3.6-10.4-.3-.6-.3-.8.2-.4.7.7 3.6-6.3 4.7-11.2.2-.8.7-1.8 1.1-2.1.4-.3.9-1.7 1.1-3 .1-1.3 1-3.9 2-5.7.9-1.8 1.4-3.7 1.1-4.2-.3-.6-.1-1 .5-1s.8-.5.5-1c-.3-.6-.1-1 .6-1s1-.3.6-.6c-.3-.4 0-1.9.9-3.5.8-1.6 1.2-2.9.9-2.9-.3 0 .3-1.2 1.2-2.7 1.4-2.1 1.5-2.5.3-1.8-1.3.8-1.3.7-.1-.8.8-1 2.5-5 3.9-9 1.3-4 2.8-7.7 3.1-8.2.4-.6.7-1.7.6-2.5 0-.8.2-1.7.6-2 .4-.3.9-1.4 1.1-2.5.1-1.1.6-2.2 1-2.5.4-.3.9-1.5 1.1-2.5.5-2.5 1.6-5.5 2.8-7.7.5-1 .9-1.9.9-2.1 0-.1-26.7-.3-59.4-.3s-59.2.4-59 .8c.3.4 0 .8-.5.8-.6 0-1.1 1-1.1 2.3 0 1.3-.4 2.7-.9 3.3-.6.5-1.2 2.1-1.5 3.6-.2 1.4-.9 3.5-1.4 4.5-.6 1-1.1 2.1-1.1 2.5-.2 1-.6 2.1-3 8.7-1.1 3-1.8 5.8-1.5 6.3.3.4 0 .8-.6.8-.7 0-1 .7-.6 1.5.3.8.1 1.5-.5 1.5s-.9.7-.5 1.5c.3.8.2 1.5-.2 1.5-.8 0-3.8 9-3.4 10.2.1.5-.3.8-.8.8-.6 0-1 .6-.9 1.2.1.7-.1 2.2-.6 3.3-.4 1.1-1.4 3.5-2.1 5.4-.8 1.8-1.1 3.7-.8 4.2.3.5 0 .9-.7.9s-.9.3-.6.7c.4.3.2 1.1-.3 1.8-.5.6-1.1 2-1.3 3.1-.1 1-.6 2.5-1 3.1-.5.7-.5 1.8-.1 2.5s.3.8-.4.4c-.8-.4-1.2.1-1.3 1.3-.1 2-.4 3.2-.9 4.8-.1.5-.2 1.1-.1 1.5 0 .5-.4.8-1.1.8-.6 0-.8.3-.5.7.4.3.2 1.2-.4 2-.6.7-.9 1.3-.6 1.3.3 0 0 1.2-.8 2.7-.8 1.5-1.2 3-.9 3.5.3.4 0 .8-.7.8s-1 .3-.7.6c.3.3-1.6 6.9-4.4 14.7-2.7 7.8-5.1 14.9-5.3 15.7-.2.8-.4 1.6-.5 1.7-.2.2-.3.6-.4 1-.1.5-.5 1.4-.9 2-.5.7-.6 1.7-.3 2.2.4.5.2 1.1-.3 1.3-.6.1-1.2 1.5-1.5 3-.2 1.4-.9 3.6-1.6 4.7-.6 1.2-.8 2.5-.5 3 .3.5 0 1.1-.5 1.3-.6.2-1.2 1-1.3 1.8-.2.8-.6 2.1-1 2.7-.5.7-.6 1.7-.3 2.2.4.5.1 1.1-.5 1.3-.6.2-1.2 1.6-1.2 3.1-.1 1.5-.5 2.7-.8 2.7-.3 0-.6.6-.7 1.2-.1 1.2-4.9 14.8-6.5 18.8-.4.8-.8 2.4-1 3.5-.2 1.1-.8 2.9-1.2 4-.4 1.1-1.4 3.5-2.1 5.4-.8 1.8-1.1 3.7-.8 4.2.3.5 0 .9-.7.9s-.9.3-.6.7c.4.3.2 1.2-.3 1.8-.6.7-1.1 2.4-1.2 3.8-.1 1.4-.6 2.3-1 2.1-.7-.5-1.2 1.3-1.1 4.3.1.7-.3 1.3-.8 1.3s-.6.7-.3 1.5c.4.8.2 1.5-.4 1.5-.8 0-2.1 4.1-2.2 6.5 0 .3-.7 1.9-1.5 3.5s-1.6 3.3-1.6 3.7c-.2.9.1.2-3.8 11.5-1.6 4.9-2.7 8.8-2.3 8.8.4 0 .1.4-.5.8-.7.4-1.5 1.9-1.7 3.2-.2 1.4-.5 2.6-.7 2.7-.1.2-.2.6-.3 1-.1.5-.5 1.4-.9 2-.5.7-.6 1.7-.3 2.2.4.5.2 1.1-.4 1.3-.5.1-1.1 1.4-1.4 2.8-.2 1.4-.5 2.6-.7 2.7-.1.2-.2.6-.3 1-.1.5-1 2.5-1.9 4.6-.9 2.1-1.6 4.1-1.5 4.5.1.4-.3 1.7-1 2.9-.7 1.3-1 2.3-.6 2.3.3 0 .2.6-.4 1.3-.6.7-1.3 2.4-1.5 3.7-.3 1.4-1.1 3.8-1.8 5.5-.7 1.6-1.3 3.3-1.4 3.7-.2.5-.4 1.1-.5 1.5-.2.5-.4 1.2-.4 1.8-.1.5-.7 2-1.4 3.2-.7 1.3-1 2.3-.6 2.3.3 0 .1.7-.6 1.5s-.9 1.5-.5 1.5.3.6-.3 1.2c-.6.7-1 1.5-1.1 1.8 0 1.7-1.5 3.9-2.2 3.4-.5-.3-.7-.9-.4-1.4.3-.5.1-1.1-.5-1.5-.6-.4-.8-1.1-.5-1.6.4-.5.1-.9-.5-.9s-.8-.4-.5-1c.3-.5-.1-2.3-1-4-.8-1.6-1.3-3-.9-3s.1-.7-.6-1.5-.9-1.5-.5-1.5c.5 0 .1-.8-.8-1.8-1-1-1.5-2.1-1.2-2.3.2-.3-.5-3-1.6-6-2.4-6.4-2.4-6.4-3.4-10.7-.4-1.8-1.2-3.5-1.6-3.8-.5-.3-.7-1-.4-1.5.4-.5.1-.9-.5-.9s-.8-.4-.5-1c.3-.5-.2-2.6-1.1-4.6-1-2-1.7-4.2-1.7-5 0-.8-.4-1.4-.9-1.4-.4 0-.7-.3-.7-.8.1-.4.1-.9-.1-1.2-.1-.3-.3-1.6-.6-2.9-.2-1.4-.9-3-1.5-3.8-.6-.7-.8-1.3-.4-1.3s.2-.7-.5-1.5-.9-1.5-.5-1.5.2-.6-.4-1.3c-.6-.8-.8-1.7-.4-2 .3-.4.1-.7-.5-.7s-.9-.6-.6-1.4c.3-.8.1-1.7-.5-2.1-.6-.3-1.1-1.5-1.1-2.6 0-1-.4-2.7-.9-3.7-1.4-2.5-2.4-5.6-2.3-6.5.1-.4-.3-.7-.9-.7-.5 0-.7-.5-.4-1 .3-.6.3-1.6-.2-2.3-.4-.6-.9-2.1-1-3.1-.2-1.1-.8-2.5-1.3-3.1-.5-.7-.7-1.5-.3-1.8.3-.4.1-.7-.6-.7s-.9-.5-.6-1c.4-.6.1-1.7-.5-2.5-.7-.8-.9-1.5-.5-1.5s-.2-1.6-1.4-3.6c-1.2-1.9-1.6-3.2-1-2.8.7.4.7-.1-.1-1.5-.6-1.2-1.3-3.2-1.5-4.3-.3-1.2-.8-2.4-1.2-2.7-.5-.3-1-1.7-1.1-3.1-.2-1.4-.8-2.7-1.3-2.8-.5-.2-.7-.8-.4-1.3.4-.5 0-2.3-.8-4.1-.8-1.8-2-5.3-2.8-7.8-.7-2.5-1.7-5-2.1-5.7-.5-.6-1.1-2.4-1.4-3.9-.3-1.6-.8-3.1-1.2-3.4-.4-.3-.7-1-.8-1.5-.2-2.6-1.7-7.5-2.3-7.5-.4 0-.8-1.2-.9-2.6-.1-1.5-.7-3.3-1.3-4-.6-.8-.8-1.4-.4-1.4s.2-.7-.5-1.5-.9-1.5-.6-1.5c.4 0 .1-1-.6-2.3-.7-1.2-1.1-2.8-1-3.5.2-.6-.2-1.2-.8-1.2-.6 0-.9-.4-.5-.9.3-.5.1-1.2-.5-1.6-.6-.4-.8-1.1-.5-1.6.4-.5.1-.9-.5-.9s-.9-.4-.6-.9c.4-.5-.3-3-1.4-5.5-1-2.5-1.7-4.6-1.3-4.6.3 0 0-.7-.7-1.5s-.9-1.5-.5-1.5.2-.7-.5-1.5-.9-1.5-.5-1.5.2-.7-.5-1.5-.9-1.5-.6-1.5c.4 0 .1-1-.6-2.3-.6-1.2-1.3-3-1.5-4-.2-1-.9-2.8-1.5-4-.7-1.2-1.1-3-.9-4.1.1-1-.1-1.6-.6-1.3-.4.3-.9-.6-1-2 0-1.4-.6-2.9-1.3-3.3-.6-.4-1.1-.9-1-1.1.4-1-1.3-8-2.1-8.5-.5-.3-.7-1-.4-1.5.4-.5.2-.9-.3-.9-.6 0-1.3-.7-1.6-1.6-.3-.8-.2-1.2.4-.9.6.3.7-.1.4-.9-.3-.9-1-1.6-1.6-1.6-.5 0-.7-.4-.4-.9.4-.5.1-2.2-.6-3.8-.6-1.5-1.2-3.1-1.3-3.6-.2-.4-.4-1-.5-1.5-.1-.4-.2-1-.1-1.5 0-.4-.4-.7-1-.7-.5 0-.7-.4-.4-1 .3-.5 0-2-.7-3.2-.7-1.3-1.1-2.6-1-3 .1-.4-.5-2.2-1.2-4-.8-1.8-1.5-3.8-1.6-4.3 0-.6-.8-2.1-1.7-3.4-1.1-1.7-1.1-2.1-.2-1.5.9.5.8-.2-.4-1.9-.9-1.5-1.5-2.7-1.3-2.7.3 0-.6-3-2-6.8-1.4-3.7-2.7-7.2-2.8-7.7-1.3-4.8-3.1-9.5-3.7-9.5-.4 0-.5-.9-.2-2s0-2-.6-2-1-.3-1-.8c.1-.4 0-1-.1-1.5-.1-.4-.4-1.2-.5-1.7-.1-.6-.4-1.2-.5-1.5-.1-.3-.3-1.1-.4-1.8-.1-.9-13-1.2-60.8-1.2l-60.6-.1 1.1 2.1zM507.7 977.6c-.3.3-1.6.7-2.9.9-5.8.9-9.4 1.8-10.9 2.6-.9.4-1.9.5-2.3.2-.3-.3-.6-.2-.6.4 0 .6-.9.9-2 .6-1.1-.3-2-.1-2 .4s-.9.9-2.1 1c-1.2.1-3.8 1.1-6 2.1-2.1 1.1-3.6 1.5-3.3 1.1.2-.5-1-.2-2.8.7-1.8.8-4.1 1.7-5 2.1-1 .3-1.5.9-1.2 1.4.3.5 0 .9-.6.9s-.9.4-.5.9c.3.5.1 1.2-.5 1.6-.5.3-.8 1.6-.6 2.8.3 1.2.5 2.8.5 3.5.1.7.6 1 1.1.7.6-.3 1 .2 1 1.2s1.1 3.1 2.5 4.6c1.4 1.5 2.3 2.7 1.9 2.7-.9 0 3.6 3.4 6.6 5 1.4.7 3.9 1.4 5.6 1.5 1.7.2 3.9.5 5 .9 1.1.3 3.6-.2 5.7-1.3 2-1 3.4-1.4 3.1-.9-.4.6.5.2 2-.7 1.4-1 2.6-2.1 2.6-2.6s.7-.6 1.5-.3c.8.4 1.5.1 1.5-.4 0-.6 1-1.4 2.3-1.7 3.9-1.1 18.7-8.7 18.7-9.6 0-.5.7-.6 1.5-.3.8.4 1.5.2 1.5-.3 0-.4.9-1.4 2.1-2.1 1.7-1.1 2-1.1 1.3 0-.9 1.5 3.3-1.7 5.9-4.7 1-1.1 1.5-1.3 1.1-.5-.4.9.2.6 1.3-.5s1.9-2.3 1.7-2.6c-.2-.4.3-1.2 1.1-1.9 2.8-2.3 1.1-5.6-3.1-6.3-1-.1-2.4-.6-3-.9-.6-.4-2.4-1-4-1.4-3.8-.8-24.9-1.5-25.7-.8zM2205.5 1033c-1.1.4-2.3.6-2.7.3-.5-.2-.8.1-.8.7s-.5.8-1 .5c-.6-.4-1.7-.1-2.5.5-.8.7-1.5.9-1.5.5s-.7-.2-1.5.5-1.5.9-1.5.4-.5-.1-1.1.9c-.6.9-1.5 1.5-2 1.1-.6-.3-1.8.1-2.7.9-.9.9-2.1 1.6-2.7 1.7-2.4.2-8.4 3.4-7.9 4.2.3.4-.2.5-1 .2-.9-.3-1.6-.1-1.6.5s-.7 1.1-1.5 1.1-1.5.5-1.5 1.1c0 .5-.4.7-1 .4-.5-.3-1-.1-1 .6s-.3.9-.6.6c-.7-.6-6.3 2.8-7.5 4.6-.3.5-1 .9-1.5.9-1.5 0-6.4 3.2-6.4 4.1 0 .4-.5.5-1 .2-.6-.3-1.3.1-1.6.9-.3.9-1 1.3-1.5 1-.5-.3-1.2.2-1.5 1-.3.9-1 1.3-1.5 1-.5-.3-.9 0-.9.5 0 .6-.6 1.1-1.2 1.1-1.2 0-5.3 3.1-10.2 7.7-1.1 1-1.6 1.2-1.2.5.9-1.4-5.6 2.8-9.6 6.3-1.4 1.3-2.9 2.1-3.2 1.8-.3-.4-.6-.1-.6.5s-.9 1.4-2 1.7c-1.1.4-1.8 1.1-1.5 1.6.4.5-.1.9-.9.9-.9 0-1.6.5-1.6 1.1 0 .5-.4.7-1 .4-.5-.3-1-.2-1 .3s-1.1 1.5-2.5 2.2c-1.3.7-2.2 1.8-1.8 2.3.3.6.2.7-.4.4-.5-.3-2.1.4-3.5 1.6-1.4 1.2-3.6 2.9-4.8 3.7-2.1 1.4-3.2 2.3-7.7 6-1 .9-2.2 1.6-2.8 1.7-.5.1-1.2.9-1.5 1.8-.3.9-1 1.7-1.5 1.7-1.6 0-6.4 4.2-5.9 5 .3.5.2.8-.3.7-2.1-.4-3.3.2-3.3 1.7 0 .8-.4 1.2-1 .9-.5-.3-1 .1-1 1s-.4 1.4-.9 1.1c-.5-.3-1.4.1-2.1.9-.7.8-.9 1.5-.4 1.6.5 0-.1.4-1.4 1-1.3.5-2 1.3-1.7 1.9.4.6.1.9-.7.8-.7-.2-1.2.3-1 1 .1.8-.2 1.1-.8.7-.5-.3-1.3.2-1.7 1.2-.4 1-1.1 2.1-1.7 2.5-1.4.9-1.9 5.8-.6 5.8.6 0 .8.4.5 1-.3.5-.1 1 .4 1 .6 0 1.1.4 1.1 1 0 1.6 6.2 7 7.3 6.3.6-.3.7-.1.3.5-1.4 2.3 4.2 2.5 7 .3 1.5-1.2 3.2-2.1 3.9-2.1.7 0 1.6-.7 1.9-1.6.3-.8 1-1.3 1.4-1 .5.3 1.8-.4 3-1.4 1.2-1.1 2.5-2 2.9-2 .5 0 2.2-1.2 3.9-2.8 1.8-1.5 3.8-2.8 4.5-3 .8-.2 2-1 2.7-1.9.6-.9 1.2-1.3 1.2-.7 0 .5.7 0 1.5-1 .8-1.1 1.5-1.6 1.5-1 0 .5.4.4.8-.1.4-.6 3.5-2.9 6.9-5.1 3.5-2.3 6.1-4.3 5.8-4.5-.2-.3.5-1.1 1.7-1.8 1.5-1 1.8-1 1.2 0-.4.7.4.4 1.8-.7 1.4-1 2.4-2.2 2.1-2.7-.2-.4-.1-.6.4-.5 1.6.4 5.3-1.4 4.8-2.3-.4-.5.1-.9.9-.9.9 0 1.6-.4 1.6-1 0-.5.3-.9.8-.8 1.5.3 4.2-1.5 3.5-2.5-.3-.5-.1-.7.4-.4 1 .6 5.9-2.5 7.4-4.6.3-.5 1-.9 1.5-.9 1.8-.1 3.4-1 2.9-1.7-.2-.4.1-.8.8-.8 1.7 0 9.7-5.4 9.7-6.5 0-.5.4-.7.9-.4.5.4 2.3-.5 3.9-1.9s3.4-2.5 4-2.5c.5 0 1.2-.7 1.6-1.5.3-.8.9-1.4 1.3-1.3.4.1 1.9-.4 3.2-1.1 2.2-1.2 2.3-1.2 1.6.5-.4 1.1-.8 2.5-.8 3.1 0 .7-.4 1.3-.9 1.3-.4 0-.8.8-.8 1.8s-.6 2.4-1.2 3.1c-1.1 1.1-1 1.2.2.6 1.2-.7 1.2-.5-.1 1.1-2.6 3.2-3.4 4.8-1.8 3.9 1-.6.9-.2-.2 1.1-1.7 2-3.5 6.3-3.1 7.6.1.5-.2.8-.8.8-.5 0-1 .9-1 1.9 0 1.1-.5 2.3-1 2.6-.6.4-.8 1.1-.5 1.6.4.5.1.9-.5.9s-.9.4-.5.9c.3.5.1 1.2-.5 1.6-.6.4-.8 1-.5 1.5.3.5.1 1.1-.5 1.5-.6.4-.8 1.1-.5 1.6.4.5.2.9-.3.9-.9 0-2.7 4.7-2.4 6.2.1.5-.3.8-.9.8-.6 0-.9.7-.5 1.5.3.8.2 1.5-.2 1.5-.6 0-3.4 5.9-3.7 8 0 .3-.6 1.5-1.3 2.7-.7 1.3-1 2.3-.6 2.3.3 0 .1.7-.6 1.5s-.9 1.5-.6 1.5c.4 0 0 .7-.8 1.6-.9.8-1.7 2.2-1.7 3-.2 2.4-2 6.9-5.6 13.6-.8 1.6-1.2 2.8-.8 2.8.3 0-.2 1.1-1.1 2.5-.9 1.4-1.3 2.5-.9 2.5s.2.7-.5 1.5-.9 1.5-.4 1.5.5.4-.1.8c-1.4 1-3.5 4.9-3.5 6.4 0 .7-.7 2.6-1.5 4.2-.8 1.5-1.2 3.3-.8 3.9.3.6.1.7-.5.3-1.1-.6-1.7 1.2-1.3 3.6 0 .5-.4.8-1 .8s-.9.7-.5 1.5c.3.8.1 1.5-.4 1.5-.6 0-1 .6-1 1.2 0 .7-.7 2.6-1.5 4.2-.9 1.6-1.3 3.1-1.1 3.4.3.2-.2 1.1-1 1.9-.8.9-1.3 2-1.1 2.7.2.6-.2 1.7-1 2.4-.7.8-1.1 1.8-.8 2.3.4.5.1.9-.4.9-.6 0-1.1.8-1.1 1.8s-.3 2.2-.7 2.6c-.5.4-.8 1.1-.8 1.4-.1.4-.6 1.7-1.3 3-.7 1.2-1.1 2.6-.8 3.1.3.5-.1 1.4-.9 2.1-.8.7-1.5 2-1.5 3 0 .9-.3 2-.7 2.4-.5.4-.8 1.1-.8 1.4-.1.4-.7 1.8-1.4 3.1-1.1 1.9-1.1 2.2.1 1.5.7-.4.5.2-.5 1.4-1.1 1.2-1.6 2.6-1.1 3.3.5.8.3 1-.6.4-1-.6-1.2-.4-.7.8.3 1 .2 1.7-.4 1.7-.6 0-.8.4-.4.9.3.5.1 1.2-.5 1.6-.6.4-.8 1.1-.5 1.6.4.5.1.9-.5.9-.7 0-1 .7-.6 1.5.3.8.1 1.5-.4 1.5-.6 0-.9.3-.8.7 0 .5-.3 1.7-.7 2.8-2.8 6.9-4.4 11.5-4 11.5.3 0-.2 1.1-1.1 2.5-.8 1.3-1.3 2.8-1 3.4.3.5.2 1.1-.4 1.3-.5.1-1.1 1.2-1.3 2.3-.2 1.1-1.1 3.7-2 5.9-.9 2.1-1.4 4.2-1.1 4.7.3.5 0 .9-.7.9s-.9.3-.6.7c.4.3.2 1.2-.4 2-.6.7-.9 1.3-.5 1.3s-.1 1.4-1 3.1c-.9 1.8-1.1 2.8-.4 2.4.7-.4.4.4-.5 1.8-.9 1.5-1.4 3.1-1.1 3.6.4.5.2 1.2-.3 1.5-.8.5-3.5 9.5-3.6 12.1 0 .5-.4 1.5-.8 2.2-.4.6-.9 2.4-1.1 4-.3 1.5-.7 3.9-1.1 5.3-.3 1.4-.8 3.8-1 5.5-.2 1.6-.4 3-.5 3-.5 0-1 6.6-1.1 11.8 0 3.3.5 6.5 1.2 7.3.6.8.8 1.4.3 1.4-.4 0-.3.5.2 1 1.2 1.2 4.7 2.1 8.4 2.3 2.8.1 10-3.1 10-4.4 0-.5.7-.9 1.5-.9s1.5-.4 1.5-1c0-.5 1.4-2.3 3-4 1.7-1.7 2.7-3.6 2.4-4.2-.4-.6-.3-.8.4-.4.6.3 1.3-.3 1.7-1.4.3-1.1 1.1-2 1.6-2 .6 0 .7-.5.4-1-.3-.6-.2-1 .2-1 .5 0 1.4-.9 2.1-2.1 1.1-1.7 1.1-2 0-1.4-.8.4-.7.1.2-.7 2-1.8 4-5.4 4-7.3 0-.9.7-1.8 1.6-2.2.8-.3 1.3-1.2 1-2-.3-.8-.1-1.1.4-.8 1 .6 1.4-.7 1.1-3.4-.2-.7.2-1 .8-.6.6.3 1.1.1 1.1-.4 0-2.2.2-2.6 1.6-4.2.8-.9 1.1-1.8.8-2.2-.4-.3.3-1.8 1.5-3.3 1.1-1.4 1.8-3 1.5-3.5-.3-.5 0-.9.5-.9.6 0 1.1-.9 1.1-2s.5-2 1.1-2c.6 0 .9-.7.5-1.5-.3-.8-.2-1.5.3-1.5.8 0 1.2-.9 2-4.5.1-.6 1.1-2.5 2.2-4.2 1.1-1.8 1.7-3.8 1.3-4.4-.5-.8-.3-.9.6-.4 1 .6 1.2.4.7-.8-.3-.8.1-2.1.8-2.7.8-.7 1.2-1.6.9-2.1-.3-.5 0-.9.7-.9s.9-.3.6-.7c-.4-.3.3-2.2 1.5-4.1 1.2-2 1.7-3.3 1.1-2.9-.6.4.2-1.8 1.8-4.9 1.6-3.1 2.6-6 2.3-6.6-.5-.7-.2-.8.6-.3 1 .6 1.2.4.7-.8-.3-1-.2-1.7.4-1.7.6 0 .7-.5.4-1-.3-.6-.1-1 .4-1 .6 0 1-.3.9-.8-.1-.4.3-1.7 1-2.8.6-1.2.8-2.4.5-2.8-.3-.3-.1-.6.6-.6.8 0 1.1-.7.7-1.5-.3-.8-.1-1.5.4-1.5.6 0 1-.4 1-.9s.5-2.2 1.2-3.8c.6-1.5 1.2-3 1.3-3.3 0-.3.6-1.5 1.3-2.8.7-1.2 1-2.2.7-2.2-.3 0 .2-1.1 1.1-2.5.9-1.4 1.3-2.5 1-2.5-.4 0 0-1 .9-2.3.8-1.3 1.2-2.7.8-3-.3-.4-.1-.7.5-.7.7 0 1.1-.3 1-.8-.1-.4.4-2.1 1.1-3.7.8-1.7 1.7-3.9 2.2-5 .4-1.1 1.7-4.1 2.7-6.7 1.1-2.5 1.8-4.9 1.4-5.2-.3-.3 0-.6.6-.6.7 0 1.2-.9 1.2-1.9 0-1.1.5-2.3 1.1-2.6.6-.4.8-1.4.5-2.2-.4-.9-.2-1.1.6-.7.8.5.9.2.5-.9-.3-1-.2-1.7.4-1.7.6 0 .7-.5.4-1-.3-.6-.2-1 .3-1 .6 0 1.3-1.2 1.7-2.7.3-1.5 1.5-4.6 2.6-7 1-2.3 1.9-4.4 1.9-4.6 0-.3.8-2.2 1.7-4.3.9-2.2 1.6-4.2 1.5-4.7-.1-.4.3-.7 1-.7.6 0 .8-.3.5-.7-.4-.3-.2-1.2.4-2 .6-.7.8-1.3.4-1.3s-.3-.6.2-1.3c1.8-2.1 5.2-12.4 4.5-13.2-.4-.5-.2-.5.4-.2 1.1.6 3.9-7.1 3.7-10 0-.7.3-1 .8-.7.5.3.9-.2.9-1 0-2.6.1-3 1.2-4.4.6-.6.7-1.2.3-1.2-.4 0-.2-.7.5-1.5s.9-1.5.5-1.5-.2-.7.5-1.5c.6-.8.9-1.9.5-2.5-.3-.5-.1-1 .5-1 .7 0 1-.7.6-1.5-.3-.8-.1-1.5.5-1.5s.9-.7.5-1.5c-.3-.8 0-1.5.6-1.5s.8-.3.5-.7c-.4-.3-.2-1.1.3-1.8.5-.6 1.1-2 1.3-3.1.1-1 .6-2.5 1-3.2.5-.6.5-1.7.2-2.2-.3-.6-.1-1 .6-1s.9-.3.6-.7c-.4-.3-.2-1.2.4-2 .6-.7.9-1.3.6-1.3-.4 0 .2-2 1.3-4.6 1.2-2.7 1.5-4.2.7-3.8-.9.6-.9.5 0-.7 1.4-1.8 5.8-14.7 5.6-16.7 0-.6.4-1.2.9-1.2.6 0 .8-.7.4-1.5-.3-.8-.1-1.5.3-1.5.5 0 .8-.8.6-1.8-.1-.9.2-2.2.7-2.9.5-.7.7-1.7.3-2.3-.3-.5-.2-1 .4-1 .5 0 .9-.8.9-1.8 0-.9.2-3.1.6-4.7.3-1.7.7-6.1.7-9.8 0-5.3-.4-7.4-1.8-9-1-1.1-1.2-1.7-.5-1.3 1.1.7 1.2.4.3-1.2-.6-1.2-1.6-2.4-2.3-2.8-.7-.5-.9-.2-.4.7.4.8 0 .5-.8-.5-.9-1.1-2.4-2.2-3.4-2.4-3.7-.8-10.8-.9-12.7-.2zM1982.4 1070.2c-.3.4-.9.6-1.3.3-.5-.2-2.4.3-4.2 1.2-4 1.9-8.6 5.3-7.3 5.3.5 0 .1.5-.8 1.1-3.6 2.1-16.4 23.2-15.2 25.1.3.4.1.8-.4.8-1.7 0-4.4 10.8-4.3 17.5.1 2.2.1 5 .1 6.2 0 1.3.5 2.3 1 2.3s.7.7.4 1.5c-.4.8-.2 1.5.4 1.5.5 0 1 .6.9 1.2-.1 3.5.4 4.9 1.5 4.2.7-.5.9-.2.5.8-.3.9 0 2.1.6 2.7.6.6.7 1.1.2 1.1-.5 0 .2 1.2 1.6 2.7 1.3 1.4 1.8 2.2 1 1.8-.8-.5.1 1.3 1.9 3.9 3.4 4.7 6 7.3 4.6 4.5-.4-.8.1-.5 1.1.7 2.5 2.8 6.5 4.3 9.9 3.8 1.6-.3 3.7-.5 4.7-.5.9 0 1.7-.4 1.7-.9s.7-.7 1.5-.4c.8.4 1.5.1 1.5-.6 0-.6.5-.8 1.1-.5.6.4 1.7-.1 2.5-1.1.9-1.1 1.2-1.3.9-.6-.8 1.6 7-2.2 8-3.8.4-.6 1.1-.8 1.6-.5.5.4.9.1.9-.4 0-.6.5-1.1 1.1-1.1 2 0 6.9-4.1 6.3-5.2-.4-.6-.3-.8.3-.5 1.3.8 6.6-4.7 5.6-5.7-.5-.4-.1-.6.7-.4.8.1 1.4-.3 1.3-1-.2-.6.2-1.2.8-1.2.5 0 .8-.4.5-.9-.3-.5 0-1.1.8-1.4 1.6-.6 5.7-8.3 4.9-9.1-.4-.3-.2-.6.4-.6 1 0 2.6-3.6 2.4-5.3-.1-.4.4-.7 1-.7.5 0 .8-.4.4-.9-.3-.5 0-1.3.6-1.6.5-.4.8-1.3.5-2.1-.3-.7-.1-1.6.3-1.9.5-.3.8-3 .6-6.1-.2-3.9-.8-6-2.1-7-1.1-.9-1.2-1.3-.4-.9.8.4.4-.3-1-1.5s-1.8-1.8-1-1.4c.8.4-.7-1.6-3.5-4.4-2.7-2.8-5.3-4.8-5.7-4.6-.5.3-.8.1-.8-.5 0-.5-2.8-3.1-6.2-5.7-3.4-2.7-5.8-4.1-5.3-3.3.5.7-.4.2-1.9-1.3-1.6-1.5-3.2-2.5-3.7-2.2-.5.3-.9 0-.9-.6 0-.7-.7-1-1.5-.6-.8.3-1.5.1-1.5-.4s-.8-.9-1.7-.9c-1 0-3-.2-4.6-.4-1.5-.2-3 0-3.3.5zm15.7 19.7c1.6 1.7 2.9 4 2.9 5.1 0 1.1.4 2 .9 2 .6 0 .8.9.6 2-.2 1.1 0 2.2.4 2.4.6.4.6 3.7-.2 11.8-.1 1-.5 1.8-1 1.8s-.6.7-.3 1.6c.3.8.2 1.3-.3 1-.5-.3-1.2.1-1.5 1-.4 1-.2 1.3.7.8.6-.4.4.1-.6 1.2-4 4.3-7.7 8.9-7.7 9.7 0 .5-.4.5-1 .2-.5-.3-1 .1-1 1s-.4 1.3-1 1c-.5-.3-1-.1-1 .4 0 .6-.7 1.1-1.5 1.1s-1.5.5-1.5 1.1c0 .5-.4.7-1 .4-.5-.3-1-.2-1 .4 0 1-5.4 2.4-9.5 2.5-2.3.1-7.7-4.3-6.9-5.5.3-.5.2-.9-.3-.9-.4 0-.8-3.6-.8-8s.3-8 .6-8 .6-.6.7-1.3c.1-1.7.7-3.6 2.3-7.7.7-1.9 1.2-3.8 1.1-4.3-.1-.4.2-.7.7-.7 1 0 2.7-3.9 2.3-5.3-.1-.5.2-.6.7-.3.5.3 1.6-1 2.5-2.9.9-1.9 1.9-3.5 2.2-3.5.3 0 .2.5-.2 1.2-.4.6.9-.1 2.9-1.6 2-1.6 3.7-2.5 3.7-2 0 .4.5.3 1.2-.4 2.2-2.2 8.6-.7 11.9 2.7z"/><path d="M1417.7 1090.6c-.2.2-2.8.6-5.8.9-10.2 1-13.4 1.4-15.6 1.9-2.8.7-6.3 1.6-8.3 2.1-.8.2-1.7.4-2 .5l-1.5.5c-.5.1-1.2.3-1.5.4-.3.2-1.2.4-2 .6-2.6.5-11.5 4.7-12.1 5.7-.3.5-.9.9-1.3.9-2-.3-2.6 0-2 1.1.5.7.3.8-.6.3-.7-.4-1.5-.3-1.9.2-.3.6-1.8 1.6-3.2 2.4-2.8 1.5-5.3 3.3-15.6 11.6-3.6 2.9-6.3 5.3-5.9 5.3.3 0-.2.8-1.1 1.9-1 1-2 1.8-2.3 1.7-.9-.2-7.5 6.6-7.3 7.5.2.5-.1.8-.5.6-.9-.2-9.1 8.2-9.2 9.4 0 .3-.9 1.6-2 2.9-1.1 1.2-1.7 2.7-1.3 3.3.3.5.2.7-.3.4-.6-.3-1.6.3-2.3 1.5-1 1.6-1 1.9.1 1.3.7-.5.3.2-.9 1.4-1.3 1.2-2.3 2.8-2.3 3.6 0 .8-.4 1.5-.8 1.5-.8 0-3.8 7.4-3.1 7.6.2.1-.4 1.1-1.4 2.2-1.1 1.2-1.6 2.6-1.1 3.3.4.8.3 1-.4.5-.7-.4-1.2-.1-1.2.8v2.1c0 .3-.9 2.5-2 5s-1.7 4.5-1.3 4.5c.3 0 0 .6-.6 1.4-.6.8-1.1 1.8-1 2.2.1.5 0 1.2-.1 1.6-.1.5-.4 1.2-.5 1.8-.1.5-.4 1.1-.5 1.2-.1.2-.4 1.2-.6 2.3-.1 1.1-.6 3.1-.9 4.5-.4 1.4-.8 3.4-1 4.5-.1 1.1-.5 2.7-.8 3.5-.4.8-.9 3.3-1.1 5.5-.3 2.2-.8 6.2-1.3 9-.4 2.7-.7 6.2-.8 7.7 0 2.1-.7 3-2.7 3.7-1.4.5-2.9.7-3.2.4-.3-.4-.6-.1-.6.6s-.4.9-1 .6c-.5-.3-1.6-.3-2.2.2-.7.4-1.9.8-2.7 1-.8.1-2.6.5-4 .9s-2.9.7-3.3.6c-.5-.1-.8.3-.8.9 0 .5-.4.7-1 .4-.5-.3-1.5-.3-2.2.1-1.3.8-2 .9-12 1.9-6.8.7-7.6.3-6.8-3 .1-.6.4-1.9.6-3 .2-1.1.5-3.4.8-5 1.6-8.9 2-11.2 2-13.3.1-1.2.3-2.2.7-2.2.3 0 .5-1 .6-2.3 0-2.2.8-6.2 1.7-9.5.2-.9.7-4.2 1.1-7.3.3-3.1.8-6.7 1.1-8 .5-2.3.8-4.4 1.9-11.9.3-1.9.8-5.1 1.1-7 .6-3.5.7-4.5 1.9-13.5.3-2.8.8-6.4 1-8 .3-1.7.7-4.8 1-7 .4-2.2.8-5.1 1-6.5.2-1.4.7-4.1 1-6 .8-5.3 1.3-8.1 2.4-12.5.5-2.2 1.2-5.1 1.5-6.5.3-1.4.8-3.6 1.1-5 1.4-5.8 1.6-8 .6-8.1-2-.3-2.6-.4-3.6-1-1.4-.9-4.6-.5-8.4 1.1-2.4 1-3.8 2.6-5.2 5.8-1.1 2.4-1.7 4.8-1.3 5.3.3.5 0 .9-.6.9-.7 0-1 .6-.8 1.2.3.7-.1 1.9-.9 2.6-.7.8-1.1 1.8-.7 2.3.3.5 0 .8-.8.7-.7-.2-1.2.3-1 1 .1.8-.2 1.1-.9.6-.6-.3-1.4-.2-1.8.3-.3.5-2.8 2-5.4 3.2-4.2 2-6.5 2.3-18.2 2.5-7.4.1-13.5-.2-13.5-.6 0-.4-.5-.8-1-.8-.6 0-2.8-1.1-4.9-2.4-2.1-1.4-4.2-2.2-4.5-1.9-.3.4-.6.2-.6-.3 0-2.7-25.6-2.2-28.4.6-.4.4-1.4.6-2.1.4-.7-.3-1.6-.1-2 .5-.3.6-1.4 1.1-2.4 1.1s-3 1.1-4.4 2.4c-1.4 1.3-2.8 2.1-3.1 1.8-.3-.3-.6 0-.6.7s-.4.9-1 .6c-.5-.3-1-.2-1 .3 0 .4-1.8 1.8-3.9 3-2.2 1.3-4.9 3.5-6.1 5-1.2 1.5-1.9 2-1.5 1.2.4-.8-.2-.5-1.3.7s-2.2 2-2.4 1.7c-.3-.2-1.1.3-1.9 1.3-1.2 1.4-1.2 1.6 0 .8 1-.5 1.2-.4.7.3-.4.7-1.4 1.2-2.2 1.2-.8 0-1.4.5-1.4 1.2 0 .6-.3.9-.6.6-.8-.9-4.2 2.5-3.6 3.6.3.5 0 .6-.6.3-.5-.4-2.2.7-3.6 2.4s-2.6 2.8-2.6 2.5c0-.3-.9.2-1.9 1.1-1.1.9-1.8 2-1.5 2.5.3.5 0 .7-.8.6-.7-.2-1.2.4-1 1.2.2.8 0 1.2-.4.8-.9-.9-15.5 13.2-14.8 14.3.2.4-.1 1.1-.7 1.5-.8.5-1 .2-.5-.7.7-1.2-2.1 1.8-5.5 5.9-3.9 4.8-10.8 15.6-10.3 16.3.3.5.1.9-.5.9-.5 0-1.3 1-1.7 2.2-.4 1.3-1 2.5-1.3 2.8-1.1.9-5.6 10.4-5.4 11.2.2.4-.2.8-.8.8-.6 0-.8.7-.5 1.6.3.8.2 1.2-.4.9-.9-.5-1.5 2.4-1.1 4.8.1.5-.3.6-.9.2-.5-.3-1.1.2-1.2 1.2-.2 3.2-.4 3.8-1.6 6-.7 1.3-1 2.3-.6 2.3.3 0 .1.7-.6 1.5-.6.8-.9 1.9-.5 2.5.3.5.1 1-.4 1-.6 0-1 .3-.9.7.1.5-.2 2.4-.6 4.3-.4 1.9-.9 4.8-1.1 6.5-.2 1.6-.5 3-.6 3-.1 0-.2 5.1-.3 11.2-.1 6.2.1 11.3.4 11.3.4 0 .7.7.7 1.5 0 1.3-2.1 2.5-5.5 3.1-.7.1-2 .8-2.9 1.6-.9.7-2.1 1.3-2.7 1.4-3.3.3-7.6 1.8-7.6 2.7 0 .6-.3.8-.6.4-.3-.3-3 .5-6 1.8s-5.8 2.5-6.2 2.6c-.9.2-5.1 1.7-7.2 2.6-.8.3-2.1.5-2.7.4-.7-.1-1.3.2-1.3.6 0 .5-.8.9-1.7 1-1.8.1-5.7.8-12.3 2.2-6 1.2-12.4.2-16.9-2.6-1.8-1.2-2.2-1.2-1.6-.2.5.8-.6-.1-2.3-1.8-1.8-1.8-3.2-3.5-3.2-3.9 0-.3-.7-1.2-1.5-2.1-.8-.8-1.3-1.9-1-2.4.4-.5.2-.9-.2-.9-2.1 0-1.9-20.4.3-33.5.3-1.7.7-4.4.9-6 .2-1.7.4-3 .5-3 .1 0 .3-1.1.5-2.5s.6-4.5 1-7 .9-5.9 1.1-7.5c.1-1.7.3-3 .4-3 .1 0 .4-1.4.6-3 .5-3.9.9-6.3 1.7-10 .7-3.6 2.2-12.7 3.2-20.5.2-1.4.4-2.5.5-2.5.2 0 .4-.9.5-2 .9-6.4 1.8-12.3 2.2-14 .2-1.1.6-2.9.8-4 .9-4.3 1.8-7.2 3.7-11.1.5-1.1.8-2.4.7-3-.2-.5.2-1.9.9-3.2.7-1.2 1-2.2.6-2.2-.3 0-.1-.6.5-1.4.6-.8 1.1-1.8.9-2.2-.1-.5.3-1.8.9-2.9.6-1.1 1.1-2.2 1.1-2.5.1-1 1.4-4.5 2.8-7.8.8-1.8 1.1-3.1.6-2.8-.5.3.4-2.1 1.9-5.2 1.4-3.1 2.4-6.2 2.2-6.9-.3-.7-.1-1.3.5-1.3 1.6 0 2-4.8.5-7-.8-1.1-1.8-1.8-2.3-1.5-.4.3-1 0-1.2-.5-.2-.6-2.1-1.2-4.3-1.5-6.1-.6-13.2 3.3-22.4 12.6-4.3 4.3-8.6 7.9-9.5 7.9-.9 0-1.6.4-1.6.8 0 1.7-8.7.6-12.8-1.6-2.3-1.2-4.2-1.9-4.2-1.5 0 .3-.8-.4-1.9-1.5-1-1.2-2.6-2.2-3.5-2.2-1 0-1.4-.5-1.1-1 .3-.6-.1-1-.9-1-.9 0-1.6-.5-1.6-1 0-.6-.6-1-1.4-1-.7 0-1.9-.6-2.5-1.4-1.2-1.4-8.3-3.7-13.6-4.3-5.2-.7-24.9-.7-28-.1-1.6.3-4.7.9-6.7 1.3-2.1.4-3.8 1.1-3.8 1.7 0 .5-.4.7-.9.3-.5-.3-3.6.6-6.8 2-3.2 1.5-5.8 2.5-5.8 2.4 0-.1-1.7.4-3.7 1.1-2.1.8-3.8 1.8-3.8 2.3 0 .4-.4.6-.9.3-.4-.3-2.7.3-4.9 1.4-2.3 1.1-4.6 2-5.2 2-.5 0-1 .4-1 1 0 .5-.3.9-.7.8-1.5-.4-5.3 1.3-5.3 2.3 0 .6-.4.8-.9.5-.5-.3-2.1.4-3.7 1.6-1.5 1.3-2.5 1.7-2.1 1 .6-.8.3-1-.7-.6-.9.3-1.3 1-1 1.5.3.5-.2.6-1 .3-.9-.3-1.6-.2-1.6.3 0 .9-4.5 3.6-6.2 3.7-.4.1-1.6.9-2.8 1.8-1.1 1-2 1.4-2 1 0-.4-.7.1-1.4 1.1-.8 1-1.7 1.8-2 1.7-1.3-.1-6.6 3.1-6.6 4.1 0 .6-.4.7-1 .4-.5-.3-1-.1-1 .4 0 .6-.6 1.1-1.3 1.1-.7 0-2.7 1.3-4.5 3-1.8 1.6-3.6 3.1-4 3.2-.4.2-.6.6-.5 1 .2.5-.1.7-.6.5-1.5-.4-10.2 6.4-9.5 7.5.4.6.2.8-.4.4-.6-.3-1.7.3-2.5 1.4-.7 1.1-1.7 1.7-2 1.3-.4-.3-.7.1-.7 1 0 1-.3 1.6-.7 1.5-1.2-.4-11.3 9.4-11.3 10.9 0 .7-.4 1.2-.8 1-1.1-.3-7.1 6-6.4 6.7.3.3 0 .6-.5.6-.6 0-3.4 2.9-6.2 6.5-2.8 3.6-4.9 6.5-4.6 6.5.4 0-.6 1.4-4 5.4-1.7 2-3.5 5-4.1 6.8-.4 1-1.1 1.8-1.6 1.8-.6 0-.7.7-.4 1.6.3.8.2 1.2-.3.9-.9-.5-2.8 3.7-2 4.3.2.2-.4.8-1.4 1.3-.9.6-1.5 1.4-1.2 2 .4.5.1.9-.4.9-.6 0-1 .3-.9.7.1.5-.5 2.2-1.5 3.9-.9 1.7-1.3 3.4-1 3.8.4.3.2.6-.3.6-.8 0-3.4 7.4-4 11.5-.1.5-.3 1.2-.4 1.5-.1.3-.3 1.6-.5 3s-.6 4.1-.9 6c-2.5 14.6-2.6 27.9-.3 37 .2.8.7 3.3 1.2 5.5.4 2.2 1.4 5 2.1 6.2.8 1.3 1.2 2.3.9 2.3-.3 0 0 1 .7 2.2.6 1.3 1.3 2.9 1.4 3.7.2.8 1.3 2.8 2.5 4.4 1.2 1.6 1.7 2.7 1 2.3-1.2-.8 1.8 4.1 6.8 11 3 4.1 12.2 12.2 10.7 9.4-.4-.9-.2-.8.7.2.8 1 2.5 2 3.8 2.2 1.3.3 2.4.5 2.4.7 0 .1.9.3 2 .5 1.1.1 3.4.6 5 1 5.9 1.4 20.5.5 26.2-1.7 1.3-.5 2.3-.6 2.3-.3 0 .4 1.2-.1 2.6-1.1 1.8-1.1 2.4-1.2 1.8-.4-.6 1.2-.5 1.2.9 0 .9-.7 1.7-1 1.7-.7 0 .4.9.2 2.1-.4 1.1-.7 3.3-1.4 4.7-1.6 1.5-.3 3-1 3.3-1.6.4-.6 1.2-.7 1.8-.4.6.4 1.1.2 1.1-.4 0-.6.5-.8 1-.5.6.3 1 .2 1-.4 0-.6.7-.8 1.5-.5.8.4 1.5.1 1.5-.6 0-.6.4-.9.9-.5.5.3 1.5-.1 2.3-.8.7-.8 2.5-1.7 3.9-2 1.4-.4 4.2-1.8 6.3-3.2 2.1-1.4 3.4-2 3-1.3-.9 1.5 2.4-.9 4.4-3.2 1-1.1 1.1-1.1.6-.1-.5 1 .2.8 2.5-.5 1.7-1 3.1-2.2 3.1-2.6 0-.4.3-.7.8-.6 1.3.2 4.2-1.4 3.7-2.1-.2-.4.2-.8.9-.8 1.7 0 10.6-6.2 10.6-7.4 0-.6.4-.8.9-.4.5.3 2.6-1 4.6-2.9 2-1.9 3.9-3.6 4.3-3.8.4-.2.6-.7.4-1.1-.1-.5.2-.6.7-.3.5.4 1.7-.4 2.5-1.6.9-1.2 1.6-1.8 1.6-1.3s.9-.1 2-1.3c1.2-1.2 3.2-2.9 4.5-3.8 1.4-.9 2.2-2.1 1.8-2.7-.3-.5-.1-.7.5-.3.6.3 2-.6 3.1-2 1.2-1.5 2.1-2.3 2.1-1.9 0 .5 1.8-1.1 4-3.4s4-3.9 4-3.6c0 .4 3.2-2.5 7-6.3 3.9-3.8 7-6.8 7-6.6 0 .2.9-.4 1.9-1.3 1.1-.9 1.7-2.1 1.4-2.6-.3-.6-.1-.7.4-.4.6.4 1.7-.1 2.4-1 1-1.2 1-1.4.2-.9-.7.4-1.3.5-1.3.2 0-.2 1.4-1.1 3-2 3.3-1.6 3.2-1.7 3.3 5.1.1 1.3.3 2.3.6 2.3s.6 1 .7 2.2c.1 3.6 2.1 11.6 4.1 16.8.4.8.7 1.7.7 2 .5 2 3.2 7 3.9 7 .5 0 .6.4.2.9-.3.5.2 1.6 1 2.4.8.9 1.5 2 1.5 2.4 0 .5 1 1.9 2.3 3.1 1.2 1.1 3.6 3.6 5.3 5.4 1.8 1.8 4 4 5.1 4.8 7.6 6.1 10.3 8 11.9 8 .9 0 1.4.3 1.1.7-.6.6 11 6.3 13.7 6.7.6.1 1.7.5 2.4.9.6.5 1.2.5 1.2 0 0-.4.4-.3.8.3.4.7 2.1 1.3 3.7 1.5 1.7.2 3.5.6 4 1 1.2.8 15 .4 18.5-.5 1.4-.4 3.2-.9 4-1.1.8-.2 1.5-.4 1.5-.5 0-.1.9-.3 2-.5 1.2-.2 3.7-1.1 5.8-2 2-.8 4-1.6 4.4-1.6.5-.1 1.7-.6 2.8-1.2 1.1-.6 2.9-1.2 3.9-1.4 1.1-.2 2.7-1 3.6-1.8.9-.8 1.9-1.2 2.2-.9.4.3 1.7 0 3-.7 1.2-.7 2.6-1.2 3.1-1.1.4.1.7-.3.7-.9 0-.5.4-.8.9-.4.5.3 1.7-.2 2.5-1.1.9-.8 1.6-1.3 1.6-.9 0 .3 1 0 2.3-.7 1.2-.7 2.4-1.3 2.7-1.3.3-.1 2.5-1.1 5-2.2 2.5-1.2 5.1-2.3 5.6-2.5.6-.2 3.2 2.1 5.7 5.1 5 5.8 15.6 14.3 16.9 13.5.4-.3.8 0 .8.6s.5.8 1 .5c.6-.3 1-.1 1 .4 0 1.2 6.9 2.6 11 2.4 2.8-.2 8.3-1 9-1.3.3-.1 1-.3 1.5-.4 3.5-.6 9.5-3.1 9.5-3.9 0-.6.3-.7.6-.4.4.3 1.6.1 2.8-.5 1.1-.7 2.4-1.1 2.9-1 .4.1.7-.3.7-.9 0-.5.5-.7 1-.4.6.3 1 .1 1-.5s.4-.9.9-.5c.6.3 1.3-.1 1.8-.9.4-.8 1-1.4 1.3-1.4 1.2.3 8-3.5 8-4.4 0-.5.5-.6 1-.3.6.3 1 .1 1-.4 0-.6.6-1 1.3-.8.6.1 1.1-.4.9-1.1-.1-.8.2-1.1.8-.7.5.3 1 .1 1-.5s.4-.9.8-.6c.5.3 2.6-1.2 4.9-3.2 2.2-2 4.4-3.8 4.9-4 .5-.2 2.4-1.5 4.2-3 4.8-3.9 11.1-9.7 8.7-8.1-1.8 1.3-1.9 1.3-.6-.3.7-1 1.6-1.6 2-1.4 1.1.7 18.2-16 17.3-16.9-.4-.5-.1-.5.6-.1s1.5.1 1.8-.8c.3-.9 1-1.3 1.6-1 1.3.8.7 9.7-1 15.9-.8 2.7-1.5 6-1.4 7.2 0 1.4-.4 2-1.1 1.6-.6-.4-.8.2-.5 1.5.4 1.2.3 2.2-.1 2.2s-.8.6-.9 1.2c0 .7-.3 2.2-.6 3.3-1.2 4.5-3.7 14.1-4.1 16.2-.3 1.2-1 3.4-1.5 4.8s-.9 2.9-.8 3.3c.1.4-.2 1.4-.5 2.2-.5 1.3-3.1 10.9-4.3 16.2-.5 2.3-1.2 5.2-2 8-.3 1.3-.6 3.3-.7 4.5-.1 1.3-.5 2.3-1 2.3s-.7.7-.4 1.5c.4.8.2 1.7-.4 2.1-.6.3-.8 1.2-.5 1.9.2.7.1 1.6-.4 2.1s-1.1 2.2-1.4 3.9c-.3 1.6-1 4.8-1.6 7-.6 2.2-1.2 4.7-1.4 5.5-.1.9-.5 2.1-1 2.8-.4.6-.4 1.6-.1 2.2.3.5.2 1-.3 1s-.9.6-1 1.2c-.2 2.3-.7 4.3-1.5 5.5-.5.7-.5 1.7-.2 2.3.3.5.1 1-.5 1s-1 .6-.9 1.2c.1.7-.3 2.6-1 4.3-.7 1.6-1.3 3.8-1.4 4.7-.1 1-.4 1.8-.7 1.8-.7 0-4.5 10.2-4.2 11.2.1.5-.2.8-.7.8-.8 0-2.4 3.7-2.2 5.2.1.5-.4.8-1 .8-.5 0-.8.4-.5.9.3.5-.1 1.4-.9 2.1-.8.7-1.2 1.6-.9 2.1.3.5 0 .9-.7.9s-.9.3-.6.7c.4.3.1 1.3-.7 2.2-.8.9-1.6 2.3-1.8 3.1-.2.8-.9 2.1-1.6 2.8-.7.8-1 1.7-.7 2.2.3.4-.1 1-.8 1.3-.6.3-2.1 2.2-3.2 4.3-1.1 2.2-2.6 4.5-3.3 5.2-.7.8-.9 1.8-.6 2.4.4.7.2.8-.4.4-.7-.4-1.2-.2-1.2.3v1.6c0 .3-.8 1.3-1.7 2.3-2.7 2.8-4.8 6.3-4.6 7.3.2.5-.3.9-1.1.9-.7 0-2.1 1.5-3 3.2-.8 1.8-1.6 2.9-1.6 2.5 0-.5-1.2.6-2.7 2.4-1.6 1.8-2.7 3.7-2.5 4.2.1.5-.2.6-.7.3-.5-.3-2.1.8-3.5 2.5s-2.6 2.8-2.6 2.4c0-.6-1.5.5-5.1 3.7-1 1-2.1 1.8-2.4 1.8h-1.6c-.5 0-.7.4-.4 1 .3.5 0 .7-.8.4-.8-.3-1.7.2-2.1 1.1-.3.9-1 1.4-1.6 1-.5-.3-2 0-3.2.7-1.3.7-2.6 1.1-3 1-.5-.1-.8.3-.8.9 0 .5-.4.8-1 .4-.5-.3-2.5.1-4.4.9-1.9.8-3.7 1.2-4 .9-.2-.3-1-.1-1.7.3-4.7 2.9-38.6 2.1-46.1-1-.9-.4-2.2-.9-3-1-1.4-.3-3.8-1.1-7.6-2.7-1.3-.5-2.7-.7-3.2-.4-.5.3-1.2.1-1.5-.5-.7-1.1-7.9-4.3-9.1-4-.4.1-1-.2-1.3-.7-1-1.3-7.5-4.7-6.7-3.4.4.6-.9 0-3-1.4-2-1.4-4.1-2.5-4.6-2.5-.4 0-2.7-1.2-4.9-2.6-2.3-1.4-3.8-2-3.4-1.2.3.7.1.6-.7-.3-.7-.9-2-1.4-2.8-1.1-.8.3-1.2.1-.8-.3.4-.4-1.2-1.7-3.5-2.8-2.3-1.1-5.3-2.9-6.6-3.9-1.3-1-2.8-1.5-3.4-1.1-.5.3-.7.1-.4-.4.6-.9-2.4-3-3-2.1-.1.2-.9-.6-1.7-1.7-.9-1.1-1.6-1.6-1.6-1.2 0 .5-1.2-.5-2.6-2.2-1.4-1.7-3.1-2.8-3.6-2.4-.6.3-.8.1-.5-.4.7-1.1-1-3.1-2.8-3.2-.5-.1-1-.5-1-.9s-1.5-2.6-3.4-4.7c-1.8-2.2-3-3.4-2.6-2.6.5.9.4 1.2-.3.7-.6-.4-.9-1.3-.6-2 .3-.8-.4-2-1.5-2.8-1.1-.8-2.1-2-2.3-2.8-.2-.8-.5-1.7-.8-2-1.2-1.2-5-9.3-5-10.7 0-.8-.4-1.1-1-.8-.6.3-.7-.1-.4-.9.3-.9.1-1.6-.5-1.6s-.8-.7-.5-1.5c.4-.8.2-1.5-.3-1.5s-.9-.8-1-1.8c-.1-.9-.9-3.5-1.8-5.7l-1.7-4-2.4 2.8c-1.3 1.6-2.2 3.3-1.8 3.8.3.6.8 2.2 1 3.7.2 1.5.6 3.8.8 5.2.8 5.3 1.8 10.5 2.2 11.2.3.4.7 2.6 1 5 .4 2.4 1 5 1.5 5.9.4.9.5 1.9.2 2.3-.3.3-.1.6.6.6s.9.5.6 1.1c-.4.5-.2 2.2.3 3.7 1.6 4.2 2.4 6.7 2.1 6.7-.1 0 .4 1.1 1.1 2.5.8 1.4 1.5 3.2 1.6 4 .2.8.8 1.6 1.4 1.8.5.2.8.8.5 1.2-.3.5.5 1.9 1.7 3.1 1.3 1.2 1.6 1.9.8 1.5-.8-.4-.6.1.5 1.1s2.1 2.5 2.3 3.3c.2.8.9 1.9 1.6 2.5.7.5 1.5 1.8 1.9 2.8.4 1.1 1.2 1.5 1.8 1.1.8-.4.9-.3.5.4s.8 2.7 2.8 4.7c2 1.9 3.3 3.5 3.1 3.5-.2 0 .8 1.2 2.3 2.7 1.5 1.5 3 2.7 3.4 2.5.5-.1.7.4.5 1.1-.1.6.4 1.1 1 1 .7-.2 1.2.3 1 1-.1.6.4 1.1 1.1 1 .6-.2 1.2.3 1.2 1.1s.5 1.8 1.2 2.2c.7.5.8.3.3-.7-.5-.8 1.3.7 3.9 3.4 2.6 2.6 5.1 4.5 5.6 4.2.5-.3 1.2 0 1.6.6.4.8.3.9-.4.5s-1.2-.5-1.2-.3c0 .3 1.5 1.4 3.3 2.6 1.7 1.1 4.9 3.2 7 4.6 2 1.4 3.7 2.2 3.7 1.8 0-.5.7.1 1.5 1.1.8 1.1 1.5 1.6 1.5 1.2 0-.4.7 0 1.6.8.8.9 2 1.4 2.5 1.1.5-.4.9-.3.9.2 0 .4 1.4 1.6 3.1 2.5 1.6 1 2.7 1.2 2.2.5-.4-.6.6-.2 2.1 1.1 1.6 1.2 3.2 1.9 3.7 1.6.5-.3.9 0 .9.6 0 .7.6 1 1.2.8.7-.3 1.9.2 2.7.9.7.8 2 1.2 2.7.9.8-.3 1.4-.1 1.4.5s.7.9 1.5.5c.8-.3 1.5 0 1.5.6s.3.8.7.5c.3-.4 1.2-.2 2 .4.7.6 1.3.8 1.3.4s.7-.2 1.5.5 1.5 1 1.5.6c0-.3 1.2-.1 2.8.5 1.5.6 4.1 1.3 5.7 1.5 5.7.9 9 1.5 12 2.1 5.5 1.1 28 .6 28-.7 0-.1.9-.3 2.1-.4 4.1-.5 11.4-2.9 11.4-3.8 0-.5.5-.6 1.1-.3.5.4 2-.1 3.1-1.2 1.2-1 1.8-1.3 1.5-.6-1.2 2 14.9-6.9 16.5-9.2.4-.5 1.2-1 1.8-1 .6 0 2-1.1 3.1-2.5 1.2-1.4 1.7-1.8 1.3-1-.8 1.7 3.5-1.8 8.4-6.8 1.7-1.8 3.2-3.1 3.2-2.8 0 .6 4.9-4.2 5-4.9.1-.2 1.8-2.1 3.8-4.2 2.1-2.1 4.9-5.3 6.2-7.1 1.4-1.9 3-3.9 3.5-4.5 3-3.4 6.6-8.7 5.9-8.7-.4 0 .1-.9 1.2-2 3.1-3.2 4.4-4.9 4.4-6 0-.5.4-1 1-1 .5 0 .7-.7.3-1.5-.3-1 0-1.5.8-1.3.8.2 1.3-.3 1.2-1-.2-.6.2-1.2.7-1.2.6 0 1-.5 1-1.2 0-.6.6-1.9 1.4-2.7.8-.9 2.3-3.3 3.5-5.4 1.2-2 3-5.4 4.2-7.5 1.2-2 2.6-4.3 3.3-5.1.9-1.2.8-1.3-.4-.7-1.3.6-1.2.5 0-.6 1.7-1.4 6.3-9.8 5.4-9.8-.2 0 .4-1 1.5-2.2 1.1-1.1 1.8-2.5 1.5-3-.3-.5.1-1.7.8-2.6.8-.9 2.5-4 3.7-6.7 1.3-2.8 2.9-6.2 3.7-7.6.7-1.4 1.1-2.9.7-3.3-.3-.3-.1-.6.5-.6.7 0 1.1-.3 1-.8-.1-.4.3-1.8.9-3.2.6-1.4 1.8-4.2 2.6-6.3.9-2 1.4-3.7 1.1-3.7-.2 0 .3-1.1 1.2-2.5.9-1.4 1.3-2.5.9-2.5s-.2-.7.5-1.5.9-1.5.5-1.5-.2-.7.5-1.5c.6-.8.9-1.9.5-2.5-.3-.5-.2-1 .3-1 .8 0 2.3-4.2 2.6-7.5.1-.6.4-1.5.7-2 .4-.6 1-2.4 1.4-4 .5-1.7.9-3.5 1.1-4 .5-1.8 3.3-13.1 3.8-15.6.9-4.2 1.4-6.3 2.9-12.3.9-3.3 1.4-6.3 1.1-6.8-.3-.4 0-.8.7-.8.6 0 .9-.8.6-2-.3-1.1-.1-2 .5-2s.8-.6.5-1.4c-.3-.7 0-1.9.6-2.5.6-.6.7-1.1.3-1.1-.5 0-.3-.7.4-1.5.7-.9 1-1.8.7-2.2-.4-.3-.2-1.1.3-1.8.5-.6 1.1-2 1.3-3.1.2-1 .7-2.6 1-3.4 1.8-4.1 3.9-10.8 4.3-13.5.5-3.4.8-4.9 1.8-8.5.3-1.4.8-3.9 1-5.5.3-1.7.7-4.1 1.1-5.5.3-1.4.7-3.9.9-5.7.2-1.7.6-3.5.9-4 .3-.5 5.1-.8 10.6-.7 5.9.2 10.3-.1 10.6-.6.4-.6 1-.8 1.3-.6.4.2 3.4-.2 6.7-1 9.2-2.3 17.2-2.6 18.1-.5.4.9.6 1.9.6 2.3-.1.5.3.8.9.8.5 0 .7.4.4 1-.3.5-.2 1 .4 1 .6 0 .8.7.5 1.5-.4.8-.1 1.5.5 1.5s1 .3.9.7c-.4 1.3 2.4 7.3 3.4 7.3.5 0 .7.4.4.9-.7 1 4.6 11.5 7.2 14.5 1.2 1.3 1.2 1.7.3 1.1-1.4-.8 2.6 5 6.2 8.9.9 1.1 1.7 2.4 1.7 2.8 0 .5.5.6 1 .3.6-.3 1-.2 1 .3 0 1.6 4.1 5.2 5.2 4.6.6-.4.8-.3.5.3-.4.6 0 1.6.8 2.3.8.7 1.5.9 1.5.6 0-.4 1 .2 2.2 1.3 1.1 1.1 2.5 1.8 3 1.5.4-.3.8-.1.8.5s1.7 1.8 3.8 2.8c2 .9 4 2.1 4.3 2.6.4.5 1.2.6 1.8.3.6-.4 1.1-.3 1.1.2s.8 1.2 1.8 1.5c.9.4 3.3 1.2 5.3 2 2 .7 4.3 1.3 5.3 1.1.9-.1 1.6.2 1.6.7 0 .5.3.8.8.8.4-.1.9 0 1.2.1 1.9.8 8.5 1.2 21.5 1.3 13.3 0 18.1-.3 27.5-1.9 1.4-.2 3.9-.6 5.5-.9 3-.4 6.6-1.2 7.5-1.5.3-.1 1.3-.2 2.3-.1.9.1 1.7-.2 1.7-.8 0-.6.7-.8 1.5-.5.8.3 2 .2 2.7-.2.6-.4 2.6-.9 4.2-1.1 1.7-.2 3.4-.7 3.9-1.2s1.6-.7 2.3-.4c.8.3 1.4.1 1.4-.5s.9-.8 2-.5c1.1.3 2 0 2-.6 0-.5.7-.8 1.5-.5.8.4 1.5.1 1.5-.5s.7-.8 1.5-.5c.8.4 1.5.1 1.5-.5s.6-.8 1.4-.5c.8.3 1.7 0 2.1-.5.3-.6 1.1-.9 1.6-.6.5.4.9.1.9-.4 0-.6.3-1 .8-1 2.2.4 4.2-.2 3.7-1.1-.3-.6.1-.7.9-.4.9.3 1.6.1 1.6-.6 0-.6.5-.8 1-.5.6.3 1 .1 1-.4 0-.6.3-1 .8-.9 1.3.4 5.2-1.3 5.2-2.3 0-.5.3-.8.8-.8 2 .3 3.2-.2 2.6-1.3-.4-.7-.3-.8.5-.4.7.5 2-.1 3.1-1.4 1-1.2 2.1-2 2.4-1.8.8.4 11.6-7.4 11.6-8.4 0-.4.4-.8 1-.8.5 0 2.7-1.7 4.9-3.8 3.5-3.3 4.5-5.7 5.3-12 .1-.6.8-1.2 1.5-1.2 2.4 0 1.1-4.3-1.4-4.6-1.3-.2-2.3.1-2.3.6 0 .6-.3.9-.7.9-2-.3-3.4.2-2.8 1.1.3.6-.1.7-.9.4-.9-.3-1.6-.1-1.6.6 0 .6-.4.9-.9.5-.5-.3-1.2-.1-1.6.5-.4.6-1.1.8-1.6.5-.5-.4-.9-.1-.9.6s-.3 1-.6.6c-.4-.3-2.3.2-4.4 1.3-2.1 1.1-4 1.6-4.4 1.3-.3-.4-.6-.1-.6.5 0 .7-.3 1.1-.7 1-1.5-.3-9.3 2.5-9.3 3.4 0 .5-.4.6-1 .3-.5-.3-2 0-3.2.7-1.3.7-2.7 1.1-3.2 1-.5-.2-1.6 0-2.5.4-.9.4-1.8.8-2.1.9-.3 0-1.4.4-2.5.8-1.1.3-3.3.9-5 1.2-6.7 1.3-7.9 1.6-9.9 2.7-1.2.6-2.3 1-2.6.9-.9-.4-12 2.3-12 2.9 0 .3-1 .7-2.2.7-2.2.1-6.3 1-6.3 1.3 0 .1-.9.3-2 .5-1.1.1-3.1.5-4.5.8-5.3 1.2-7.6 1.7-11.5 2.3-2.2.3-5.1.8-6.5 1-4.6.7-14.5 1.6-18.5 1.6-4.7 0-17.5-1.4-19.5-2.2-.3-.1-.8-.2-1.2-.1-.5 0-.8-.4-.8-1 0-.5-.4-.7-1-.4-.5.3-1 .1-1-.5 0-.7-.7-.9-1.6-.6-.8.3-1.2.2-.9-.3.3-.5-.3-1.2-1.3-1.5-3.7-1.2-13.2-11.9-13.2-14.9 0-.8-.7-2-1.5-2.7-.8-.7-1.5-2.1-1.5-3.2s-.4-2.7-.9-3.7c-3.5-6.5-2.7-28.5 1.1-32.1 1.2-1.1 2.5-1.7 2.9-1.4.4.2 1 0 1.4-.6.4-.6 1.1-.8 1.6-.5.5.4.9.2.9-.3s.6-.9 1.3-.9c.6 0 3-.8 5.2-1.8s4.6-1.7 5.3-1.6c.6.1 1.2-.3 1.2-.9 0-.5.3-.9.8-.9.4.1 1 0 1.5-.1.4-.1 1-.4 1.5-.5 3.3-1.1 7.2-3.1 7.2-3.8 0-.4.4-.6.9-.3s1.4-.1 2.1-.9c.7-.8 1.6-1.2 2.1-.9.5.3.9 0 .9-.5 0-.6.3-1 .8-.9.4.1 1.8-.5 3.2-1.3 1.4-.9 5.4-3.3 9-5.4 3.6-2.1 9.5-6 13.2-8.7 3.7-2.6 7.1-4.8 7.5-4.8.5 0 2.8-1.9 5.2-4.3 2.5-2.3 4.1-3.5 3.7-2.7-.4.9-.2.8.7-.3.8-.9 1.8-1.7 2.2-1.7.8 0 1.3-.4 6.8-5.4 1.5-1.4 2.7-2.3 2.7-2 0 .3 1.2-.6 2.8-2 1.5-1.4 5.5-5.1 8.9-8.2 3.4-3.1 6-6.1 5.6-6.7-.3-.6-.1-.7.4-.4.6.4 1.7-.1 2.4-1 1.2-1.4 1.2-1.6 0-.8-.8.4.5-1.1 2.8-3.4s3.9-4.6 3.6-5.1c-.4-.6.1-1 1-1s1.3-.5 1-1c-.3-.6-.2-1 .2-1 1.3 0 4.3-5.6 3.5-6.5-.4-.5-.1-.5.6-.1 1.1.6 1.7-.5 1.3-2.7 0-.4.4-.7.9-.7.9 0 3.4-4.9 3-5.9-.1-.2.2-.7.7-1 1.4-1 4.5-7.1 3.6-7.1-.4 0-.2-.4.5-.9.7-.4 1.4-1.4 1.6-2.2.1-.8.8-2.4 1.4-3.7.7-1.2 1-2.7.7-3.2-.3-.6-.2-1 .3-1 1.1 0 1.2-.7 1.6-11.3.2-4.8 0-9-.5-9.3-.5-.3-.7-1-.4-1.5.4-.5.1-.9-.5-.9s-.8-.5-.5-1c.3-.6.1-1-.6-1s-1-.3-.6-.6c.3-.3-.5-1.8-1.9-3.2-1.3-1.5-2.4-3-2.4-3.4 0-.5-.5-.8-1.2-.8-.6 0-1.9-.7-2.9-1.6-.9-.8-2.3-1.7-3.1-1.8-.7-.1-2.4-.8-3.6-1.5-1.3-.7-2.6-1-2.9-.7-.4.3-1.2.1-2-.6-.7-.6-1.6-.8-2-.5-.3.4-1.4.2-2.4-.4-1.7-.9-21.4-2.1-22.2-1.3zm-11.2 27.9c1.7.5 4 1.5 5.3 2.3 1.2.8 2.2 1.1 2.2.8 0-.4 1 .2 2.2 1.3 1.1 1.1 2.5 1.8 3 1.5.5-.3.7 0 .6.8-.2.7.3 1.2 1 1 .6-.1 1.1.1 1.1.5-.3 2 .2 3.4 1 2.9.5-.3.9 2.1.9 5.4 0 3.3-.5 6-1 6s-.8.6-.6 1.2c.3.7-.1 1.9-.9 2.6-.7.8-1 1.8-.7 2.4.4.6.3.8-.3.5-1-.6-3.8 4-3.5 5.5.1.5-.5.8-1.5.8-.9 0-1.3.3-1 .6.3.4-.5 1.5-1.8 2.6-1.4 1-2.4 2.4-2.2 3.1.1.6-.5 1.1-1.3 1.2-.8.1-1.4.7-1.2 1.4.1.7-.2 1-.7.7-.5-.4-1.3-.1-1.8.6-.4.7-2.5 2.7-4.5 4.5-2 1.7-3.4 3.4-3 3.8.4.4.3.5-.3.3-1.4-.4-5.7 2.7-4.8 3.5.3.4-.1.7-1 .7s-1.7.5-1.7 1.1c0 .5-.4.7-1 .4-.5-.3-1 .2-1 1.1 0 1-.3 1.4-.6 1.1-1-1-4.5 1.3-3.9 2.4.4.5.3.9-.2.8-1.6-.4-4.3 1.3-3.6 2.4.3.5.2.7-.4.4-.5-.4-2.1.4-3.4 1.6-1.3 1.2-2.6 2.2-2.9 2.3-1.9.3-3.9 1.8-3.4 2.5.3.5.2.9-.3.8-1.5-.4-6.3 2.4-5.7 3.3.3.5.2.7-.3.6-1.1-.3-5.2 2-7.7 4.3-1.1 1.1-2.6 1.9-3.3 1.9-.7 0-1.3.3-1.3.8 0 .4-1.6 1.6-3.5 2.6-1.9 1.1-3.5 2.4-3.5 2.9 0 .6-.3.7-.6.4-.8-.8-6.4 2.4-6.4 3.5 0 .4-.7.8-1.5.8s-1.5.4-1.5.9-.8.8-1.7.7c-1.3-.2-1.7-1-1.5-2.7.2-1.3.4-3.2.5-4.2.1-.9.5-1.7 1-1.7s.6-.7.3-1.6c-.3-.8-.2-1.3.3-1 .5.3 1.2-.9 1.6-2.7 1-4.3.9-3.9 2.5-6.7.7-1.4 1.2-2.5 1.1-2.5-.1 0 .3-1.4 1-3 .7-1.7 1.3-3.2 1.4-3.5.1-.3.8-1.9 1.5-3.5.7-1.7 1.4-3.2 1.5-3.5 0-.3.6-1.5 1.3-2.6.6-1.2.8-2.4.5-2.8-.3-.3-.2-.6.4-.6.6 0 2.2-2.3 3.6-5 1.5-2.8 2.2-4.8 1.6-4.4-.6.3-.5-.3.3-1.5.7-1.2 1.7-2.1 2.1-2.1.5 0 .6-.7.3-1.6-.3-.8-.2-1.2.4-.9.9.5 1.4-.7 1.2-2.6-.1-.4.7-1.4 1.8-2.4s1.6-2.4 1.3-3.3c-.4-.9-.2-1.3.5-.8 1 .6 2.8-3 2.4-4.7-.1-.5.2-.6.8-.2.9.6 1.4-.7 1.1-2.8 0-.4.4-.7 1-.7.5 0 .7-.5.3-1.2-.4-.6-.3-.8.3-.5.6.4 1.8-.4 2.7-1.8.9-1.4 1.4-2.5 1.1-2.5-.3 0 2.2-2.6 5.5-5.8 7.4-7.1 9-8.5 9-7.6 0 .3.7 0 1.6-.7.9-.7 2.1-1.4 2.8-1.6.6-.1 2.7-.7 4.6-1.2 3.8-1 9.7-.8 14.5.4zm-486.7 18.7c.6.1 1.2.6 1.2 1.1 0 .5.7.7 1.5.3.8-.3 1.5-.1 1.5.5s.4.8.9.4c.5-.3 1.2-.1 1.5.4.8 1.2 8.6.7 9.5-.5.7-1 1.8-1.3 7.2-1.8 2.1-.2 4.2 0 4.5.5.3.5 1 .7 1.5.4.5-.4.9.1.9 1s.4 1.3 1 1c.6-.3.7.1.4.9-.3.9-.2 1.6.3 1.6 1.2 0 .8 5.9-.6 9.5-.7 1.6-1.3 3.8-1.4 4.7-.1.9-.4 1.5-.8 1.2-.7-.4-2.5 5.4-2.1 6.8.1.5-.2.8-.7.8-1 0-2.7 3.9-2.3 5.2.1.5-.1.7-.5.5-.5-.1-.9.1-1 .5-.2.5-1.2 1.8-2.3 3-5.3 5.8-5.5 6.1-4 5.3.8-.5-.4 1.1-2.7 3.5-2.3 2.4-3.9 4.8-3.6 5.3.3.6.1.7-.4.4-.6-.4-1.9.5-2.8 1.9-.9 1.5-2.9 4-4.4 5.7-1.4 1.6-2.4 3.5-2.3 4.1.2.6 0 .8-.4.4-.8-.9-4 3.2-3.6 4.5.1.5-.2.6-.7.3-.8-.5-4.5 4-4.6 5.6 0 .3-.4 1-.9 1.5s-.6.2-.2-.7c.4-.8-.1-.4-1.2 1-1.1 1.3-1.8 2.9-1.5 3.4.3.5.2.6-.4.3-.5-.3-1.8.6-2.9 2-1 1.5-2.4 3.2-3.1 3.8-.7.7-.9 1.6-.5 2 .4.4 0 .5-.8.3s-1.4.3-1.3.9c.2.7-.3 1.2-1 1-.6-.1-1.1.4-1 1 .2.7-.1 1.2-.6 1-.5-.1-.8 0-.7.3.2.9-2.9 3.8-3.9 3.7-.5-.1-.9.4-.8 1 .2.7 0 1.2-.5 1.1-.4-.2-3.3 2.2-6.4 5.3-3.2 3.1-5.8 5.4-5.8 5-.1-.3-.9.3-1.8 1.4-1 1.1-2.7 2.5-3.7 3.2-1.1.6-1.9 1.7-1.7 2.5.2.7 0 1-.4.6s-1.3 0-2.1 1c-.9 1-1.1 1.1-.7.2.7-1.3.5-1.3-.9-.1-.9.7-1.4 1.8-1 2.4.3.6.1.7-.5.3-.6-.3-1.5.1-2 1s-1.3 1.7-1.8 1.7c-.5.1-.8.5-.7.9.2.5 0 .7-.5.6-1.4-.3-4.2 1.4-3.6 2.3.3.5.2.8-.3.7-1.4-.4-8.3 4.8-7.5 5.7.4.5.1.5-.5.1-.8-.4-2.3.3-3.7 1.7-1.4 1.4-2.7 2.2-3 1.9-.3-.3-.6 0-.6.6 0 .7-.7 1.2-1.5 1.2s-1.5.5-1.5 1.1c0 .5-.4.8-.9.5-.5-.3-1.1.1-1.5.9-.3.8-1 1.5-1.5 1.5-1.7 0-8 4.7-7.3 5.5.4.3.2.6-.3.4-1.6-.4-6.5 2.3-5.9 3.2.3.5-.1.6-.9.3s-2.1.3-2.8 1.4c-.8 1.1-1.8 2.1-2.4 2.2-.5.2-1.8.5-2.7.8-1 .2-1.8.7-1.8 1.1 0 .3-.9 1.2-2.1 1.9-1.2.8-1.8.9-1.5.3.4-.5-1.3.1-3.6 1.3-2.4 1.3-4.8 2.1-5.5 1.9-.6-.2-1.4 0-1.7.6-.4.6-1.3.8-2.1.4-.8-.3-1.5-.1-1.5.5 0 .5-1.2 1-2.7 1-1.6.1-6.6.3-11.1.5-6.1.3-8.7 0-9.7-1-.8-.7-1.9-1.3-2.6-1.3-.7 0-.9-.3-.6-.7.4-.3.3-1.1-.3-1.7-1.4-1.8-2.3-7.6-2-13.6.1-3 .3-7 .4-8.7 0-1.8.3-3.3.7-3.3.3 0 .5-1 .6-2.3.1-2.5.9-6.5 2.3-11.6.5-1.9.7-3.8.4-4.3-.3-.4-.1-.8.5-.8.9 0 2.5-5.1 2.1-6.6-.1-.4.3-1 .8-1.3.6-.3 1.2-1.3 1.4-2.1.2-.8 1.1-2.3 2.1-3.4s1.5-2.6 1.2-3.4c-.2-.7 0-1 .5-.7.6.3 1 0 1-.8s.7-1.8 1.6-2.1c.9-.4 1.4-1.3 1-2.2-.3-.8-.2-1.2.4-.9 1.1.7 3.2-2.9 2.2-4-.4-.5-.2-.5.5-.1.7.3 1.4-.2 1.8-1.3.3-1.1 1.3-2.2 2.1-2.5.8-.3 1.2-1.1.9-1.6-.4-.6-.3-.9.2-.8.4.2.9 0 1.1-.4.2-.4 4.1-4.6 8.7-9.4 4.6-4.8 8.1-9.2 7.8-9.7-.3-.6-.2-.7.4-.4.5.3 2.5-1 4.4-3 1.9-2 2.8-3.2 2-2.8-.9.5-1.2.4-.7-.3.4-.7 1.3-1.2 2-1.2 1.8 0 4.8-3.5 3.9-4.4-.5-.4-.1-.6.7-.4.8.2 1.4-.2 1.5-.9 0-.6.4-1.5.9-2s.6-.3.2.4c-1.1 2-.1 1.5 2-.9 1.2-1.4 1.4-1.8.4-1.3-.9.5-1.2.5-.7-.1.5-.5 1.4-.9 2-.9.7-.1 1.1-.6 1-1.3-.2-.7.2-1.1.9-.9.7.1 1.3-.5 1.3-1.3.1-.8.6-1.4 1.2-1.3.7.2 2.1-.9 3.2-2.4 1.2-1.4 2.1-2.3 2.1-1.9 0 .3 1.8-1.2 4-3.4s4.3-4 4.8-4.1c.4-.1.6-.5.4-1-.1-.5.1-.8.5-.7 1.6.3 4.3-1.5 3.6-2.5-.3-.5-.1-.7.4-.4.6.4 2.1-.3 3.5-1.6 2.4-2.2 3.2-2.7 4.6-2.7.5 0 1.7-.8 2.8-1.8 1-.9 3.3-2.4 4.9-3.2 1.7-.8 3.6-2.2 4.3-3 1.2-1.3 1.3-1.3.6 0-.6 1.1-.2 1 1.3-.3 1.1-.9 2.3-1.4 2.6-1 .4.3.7.1.7-.6s.5-.9 1-.6c.6.3 1 .1 1-.5s.4-.9.9-.5c.5.3 1.5-.1 2.3-.8.7-.8 1.9-1.2 2.6-.9.6.2 1.2-.1 1.2-.7s.3-1 .8-1c1.4.3 7.2-1.4 7.8-2.2.2-.4 1.1-.6 1.8-.3.8.3 1.7 0 2.1-.5.3-.6 1.1-.9 1.6-.6.5.4 1.5.3 2.1-.2.7-.4 3.1-.9 5.2-1 2.2-.2 4.1-.5 4.3-.7.3-.2 10.2.1 13.1.6zm292.2 23.3c5.5.9 5.9 4.2 1.6 12.2-1.6 2.8-2.8 5.5-2.6 5.9.1.4-.2 1-.7 1.3-1.6 1.2-4.2 6.8-3.5 7.6.4.5.1.5-.5.1-.7-.4-1.3-.2-1.3.3 0 1.9-.3 2.5-2.2 4.5-.9 1-1.5 2.2-1.3 2.6.3.4-.2 1.3-1 2s-1.5 1.9-1.5 2.6c0 .8-.4 1.4-.8 1.4-1.1 0-4.3 5.6-3.5 6.4.3.3.1.6-.5.6s-1.9 1.5-2.8 3.2c-.9 1.8-2.2 3.6-2.8 4-.6.4-1.1 1.2-1.1 1.7s-1.2 2.3-2.8 4c-1.5 1.7-2.4 3.1-2 3.1.5 0 0 .5-.9 1.1-1 .5-1.8 1.4-1.8 1.8 0 .5-1.3 2.3-3 4.1-1.6 1.8-2.7 3.7-2.3 4.4.3.6.3.8-.2.4-.8-.8-4 2.9-4 4.7 0 .5-.5 1-1.2 1-.6 0-2.3 1.2-3.7 2.7-1.4 1.6-2.3 2.8-2.1 2.8.8 0-8.9 9.2-10.8 10.1-1 .6-1.5 1.4-1.2 2 .4.5.1.8-.6.7-.7-.2-1.3.4-1.4 1.2 0 .8-.6 1.5-1.3 1.5-.7 0-1.7.7-2.2 1.5-.5.8-1 1.1-1 .7 0-.4-.6-.2-1.4.5-.8.7-1.2 1.6-.9 2.1.2.4.1.6-.4.5-1.3-.4-5.4 2.8-4.5 3.6.4.4.2.6-.4.4-.6-.2-2.5.8-4 2.2-1.6 1.4-4.7 3.8-6.9 5.4-2.2 1.7-4.3 3.4-4.6 3.9-.3.5-1 .9-1.5.9-2.1.1-3.3 1.1-2.7 2.1.3.5.1.7-.5.3-.6-.3-1.8.1-2.6 1-.9.8-1.6 1.2-1.6.8 0-.3-.6-.1-1.4.5-1.2 1-10.1 1.2-9.1.2.2-.1 0-1.3-.5-2.5-.4-1.2-.4-2.9.1-3.8.5-.9 1.1-4.2 1.3-7.4.6-7.2 1.4-11.1 2.7-13.5.5-1 .8-2.2.7-2.6-.1-.4.3-1.8 1-3.1.7-1.2.9-2.2.5-2.2s-.2-.5.5-1.2 1.2-1.8 1.2-2.6.6-2.8 1.4-4.5c.8-1.8 2.4-5.3 3.5-7.9 1.2-2.6 2.5-4.9 3.1-5.3.5-.3.6-1.3.3-2.3-.3-.9-.2-1.4.2-.9.9.7 6.5-7.4 6.5-9.4 0-.5.4-.8.9-.4.5.3 1.2-.4 1.6-1.5.3-1.1 1.1-2 1.6-2 .6 0 .7-.5.4-1-.3-.6-.2-1 .3-1 1.2 0 8.7-10.2 8.4-11.3-.1-.5.2-.6.8-.2.5.3 1.5-.5 2.1-1.9.7-1.4 1.7-2.3 2.2-1.9.6.4.8 0 .4-1.1-.4-.9-.3-1.5.2-1.1.5.3 2.2-1.3 3.9-3.5 1.6-2.2 3.2-3.7 3.5-3.3.6.6 1.1-1.2.8-3 0-.4.5-.6 1.1-.5.7.2 1.2-.3 1-1-.1-.6.4-1.1 1-1 .7.2 1.2-.3 1-1-.1-.6.4-1.1 1-1 .7.2 1.2-.3 1-1-.1-.6.4-1.1 1-1 .7.2 1.2-.3 1-1-.1-.6.4-1.1 1-1 .7.2 1.2-.3 1.1-1-.2-.6 0-1.1.5-1 .8.3 4.8-2.9 9.5-7.7 1.7-1.7 2.7-2.4 2.3-1.7-.4.7.9.1 3-1.3 2-1.4 4-2.5 4.3-2.6.3 0 3.5-.2 7.1-.4 3.6-.2 7.6-.5 9-.8 5.3-1.1 7.3-1.7 7.7-2.1.3-.2 1.5-.2 2.6.1 1.2.2 2.9.6 3.7.8zm-403 35.9c0 .2-.8 1-1.7 1.7-1.6 1.3-1.7 1.2-.4-.4 1.3-1.6 2.1-2.1 2.1-1.3zM1772.6 1092.7c-.4.4-5.6 1.3-8.3 1.5-.7.1-1.3.5-1.3 1 0 .4-.3.7-.7.7-.5-.1-1-.1-1.3.1-.3.1-1.6.4-3 .6-1.4.3-2.6.9-2.8 1.4-.2.6-1 1-1.8 1s-1.4.5-1.4 1.1c0 .5-.4.7-1 .4-.5-.3-2.2.7-3.7 2.2-1.4 1.5-2.3 2.2-1.9 1.5.7-1.1.4-1.1-1.2-.1-1.2.7-1.9 1.6-1.7 1.9.2.3-.9 1.1-2.4 1.8-1.6.7-4.6 2.9-6.7 5-2.1 2-3.4 3-2.9 2.2.8-1.3.6-1.3-.8-.1-.9.7-1.4 1.7-1.1 2.2.3.5-.2.9-1 .9s-2.2 1-3 2.2c-.9 1.2-1.6 1.8-1.6 1.3s-1.4.6-3.1 2.3c-1.7 1.8-3.5 3.2-4 3.2-.4 0-1 .9-1.4 2-.3 1.1-1 1.9-1.4 1.7-1-.3-8.7 7.6-8.3 8.5.1.5-.3.8-.9.8-1.5 0-11.9 10.6-11.2 11.4.4.3-.2.6-1.2.6s-1.5.3-1.2.7c.4.3-.2 1.3-1.3 2-1.1.8-1.8 1.9-1.4 2.4.3.5 0 .8-.8.7-.7-.2-1.2.3-1.1.9.2.7-.3 1.2-1 1-.6-.1-1.1.4-1 1 .2.7 0 1.2-.5 1-.4-.1-.7.1-.7.5 0 .3-1.2 1.6-2.8 2.8-1.5 1.2-2.5 2.6-2.1 3.1.3.5.2.8-.3.7-1-.3-8 7.3-7.5 8 .2.2 0 .7-.4 1-.4.4-.4 0 0-.8s-.4-.2-1.9 1.5c-1.5 1.6-4.2 4.7-6.1 6.7-1.9 2.1-3.1 3.8-2.7 3.8.4 0-.3.7-1.5 1.6-1.2.8-2 2-1.6 2.5.3.5.2.8-.3.7-.4-.2-1 .1-1.3.7-.3.5-1.7 2.2-3.2 3.8-1.6 1.5-2.8 3.2-2.8 3.8 0 .6-.4.7-1 .4-.9-.6-1.4.8-1.1 2.8.1.5-.3.6-.8.3s-1.5.2-2.2 1.1c-1.2 1.4-1.2 1.6.1.9.8-.5-.1.5-2 2.2-1.9 1.7-3.1 3.1-2.5 3.2.5 0-.1.7-1.3 1.6-1.2.8-2 2-1.6 2.5.3.5.2.8-.3.7-.4-.2-1 .1-1.2.7-.2.5-1.2 1.6-2.2 2.3-1.1.7-1.9 2-1.9 2.8 0 .8-.4 1.2-1 .9-.5-.3-1 0-1 .8s-.7 1.8-1.6 2.1c-.8.3-1.2 1-.9 1.6.3.5.2 1-.3 1-1.2 0-12.8 15-12.4 16.1.1.5-.4.9-1.2.9-1.3 0-3.1 2.7-2.8 4.2.1.5-.2.8-.8.8-.5 0-2.2 1.9-3.7 4.2-2.7 4.1-3.2 4.8-6.1 8.3-.7.8-.9 1.5-.5 1.5s.4.4-.2.8c-2.1 1.5-5 5.6-3.5 4.8 1.3-.6 1.3-.5 0 .6-2.2 1.8-6.4 8.8-5.3 8.8.4 0 .4.4-.2.8-.5.4-1.7 1.6-2.5 2.6-1.3 1.8-1.3 1.9 0 1.2.8-.4.7-.1-.4.8-1 .8-1.5 1.9-1.1 2.5.3.6.2 1.1-.2 1.1-.8 0-2.6 4.1-4 9.2-.4 1.3-.8 5.3-.9 8.9-.2 5.1.2 7.4 1.7 9.8 1.8 3 2.1 3.1 7.1 2.7 8.2-.7 10.1-1.4 12.9-4.4 2.1-2.3 2.4-3 1.3-4-1.1-1-1-1.7.9-3.8 1.2-1.4 2.2-3 2.2-3.5s.5-1.3 1-1.7c1.8-1.2 4.9-6.5 3.4-5.7-.8.3-.6 0 .4-.8.9-.8 1.7-1.9 1.7-2.6 0-.6.5-1.1 1-1.1.6 0 1-.5 1-1.1 0-.6.7-1.7 1.5-2.6.8-.8 1.3-1.9.9-2.4-.3-.5 0-.8.8-.7.8.2 1.2-.4 1-1.7-.2-1.1-.1-1.7.4-1.3.7.7 3.3-2 3.1-3.2-.1-.3 1-1.7 2.3-3.1 1.4-1.4 4.3-5.2 6.5-8.3 2.2-3.2 5-7 6.2-8.4 1.2-1.4 1.9-3 1.6-3.5-.3-.6-.2-.7.3-.4.5.3 2.1-1.1 3.4-3.1 1.4-2 3.3-4.6 4.2-5.6 1-1 1.4-2.4 1.1-3-.3-.6-.3-.8.2-.4.9.8 8.2-8 7.7-9.4-.1-.4.5-.8 1.3-.8s1.4-.3 1.3-.8c-.1-.4 1.2-2.2 3-4.1 1.8-1.9 3-3.6 2.8-3.8-.3-.3.8-1.6 2.5-3 1.6-1.4 2.6-2.9 2.3-3.4-.3-.5-.2-.8.3-.7.4.2 1-.2 1.2-.7.2-.6 1.2-1.6 2.3-2.3 1-.7 1.5-1.8 1.2-2.4-.4-.6-.3-.9.2-.6.5.3 2.5-1.2 4.5-3.4 2-2.1 3.5-3.8 3.3-3.8-.2 0 1.4-1.6 3.6-3.6s3.7-4.1 3.3-4.7c-.3-.5-.2-.7.4-.4.5.3 2.5-1 4.4-3 1.9-2.1 2.7-3.4 1.9-2.9-.8.4-.6 0 .4-.8 1.1-.9 2.4-1.6 3-1.6.5 0 .7-.3.3-.6-.3-.4.8-1.7 2.6-2.9s3.1-2.7 2.9-3.4c-.1-.7.1-1 .6-.7.4.2 4.3-3.1 8.5-7.4 4.2-4.3 7.7-7.7 7.7-7.5 0 .1 2.4-2 5.3-4.8 2.8-2.7 5.1-5.4 4.9-5.8-.1-.5.4-.9 1-.9 1.7-.1 5.8-3.5 5.8-4.9 0-.6.6-1 1.3-.9.6.2 1.1-.3.9-1-.1-.6.4-1.1 1-1 .7.2 1.2-.4 1-1.2-.2-.8 0-1.2.4-.8.4.4 1.3.3 2-.2.9-.8 1.2-.4 1 1.5 0 1.4-.3 2.5-.6 2.5s-1.2 2.1-1.9 4.7c-.8 2.7-1.5 5.2-1.7 5.8-.2.5-.5 1.9-.6 3-.2 1.1-.5 2.2-.8 2.5-.7.6-6.1 17.9-6.4 20 0 .8-.4 1.7-.8 2-.4.3-1 1.7-1.2 3-.2 1.4-.5 2.7-.6 3-.2.3-.2.9-.1 1.4.1.5-.2 1.2-.8 1.5-.5.4-1.2 1.8-1.4 3.1-.2 1.4-.7 3.3-1.1 4.2-.4.9-.9 2.2-1 3-.6 3.2-3 10.4-3.9 11.6-.5.7-.7 1.5-.4 1.9.3.3 0 1.8-.8 3.4-.9 1.6-1.4 3.2-1.3 3.6.1.4-.3 1.8-1 3-.7 1.3-1 2.3-.6 2.3.3 0 .1.6-.5 1.4-.6.8-1.1 1.8-1 2.2.1.5 0 1.2-.1 1.6-.1.5-.3 1.1-.5 1.5-.1.5-.7 2.1-1.3 3.6-.7 1.6-1 3.2-.7 3.7.3.5.1 1-.4 1.2-.6.1-1.2 1.4-1.4 2.8-.3 1.4-1 3.6-1.5 5s-1 2.7-1 3c-.1.7-1.1 3.8-2.8 8.2-.8 2.1-1.2 3.8-.9 3.8.2 0-.3 1.6-1.1 3.5s-1.2 3.5-.9 3.5c.3 0-.1 1.3-1 3-.8 1.6-1.5 3.2-1.5 3.5 0 .8-.4 2.4-1.3 4.5-.5 1.3-2.9 9.6-3.1 11-.1.3-.5 1.1-.9 1.7-.5.7-.5 1.7-.2 2.3.3.5.2 1-.3 1-1 0-3.2 8.3-3.6 13.4-.2 2 .1 3.6.6 3.6s.6.5.3 1c-.4.6 2 3.9 5.3 7.3s7.1 7.4 8.4 8.9c1.4 1.5 2.9 2.4 3.3 2 .5-.4.6-.2.2.4-.3.5.7 2.3 2.4 3.8 1.6 1.5 2.9 3.2 2.9 3.6 0 .5 1 1.5 2.2 2.1 1.8 1 2.4.8 3.5-.7.7-1 1.3-1.4 1.3-.9 0 .4 1.9-1.1 4.3-3.5 2.3-2.4 4.1-4.9 3.9-5.4-.2-.6 0-.8.4-.4.7.8 5.4-3.7 5.4-5.1 0-.5 1.3-2.3 3-4.1 1.6-1.8 2.7-3.6 2.4-4.1-.3-.5-.2-.8.3-.7.4.2.9 0 1.1-.5.1-.4 1.1-1.6 2.2-2.7 1.2-1.2 1.8-2.6 1.4-3.3-.4-.7-.4-.9.1-.5.8.8 4.5-3.3 4.5-5.1 0-.6.5-1.1 1.2-1.1.6 0 .9-.3.6-.6-.3-.3.7-1.9 2.3-3.7 1.6-1.7 2.7-3.3 2.4-3.5-.2-.2.5-1.4 1.6-2.6 2.9-3.1 16-22.6 15.2-22.6-.4 0 .2-.7 1.3-1.5 1-.8 1.6-1.5 1.2-1.5-.4 0 .6-1.5 2.3-3.2 1.6-1.8 2.9-3.6 2.9-4.1 0-.5.7-1.5 1.5-2.4.8-.8 1.3-1.9 1-2.4-.4-.5-.2-.9.3-.9 1 0 5-5.3 5.4-7.1.2-.7 1.3-2.5 2.6-3.9 1.2-1.4 2.5-3.3 2.8-4.3.3-.9 1-1.7 1.5-1.7.6 0 .8-.4.5-.9-.3-.5.1-1.2 1-1.5.8-.3 1.2-1 .9-1.6-.3-.5-.1-1 .5-1s.9-.4.5-.9c-.3-.6.4-1.5 1.5-2.1 1.1-.6 1.9-1.4 1.8-1.8-.2-.4.8-2.2 2.2-4 1.4-1.9 2.5-3.7 2.5-4.1 0-.4.8-1.5 1.8-2.5.9-1 1.4-2.2 1.1-2.8-.4-.7-.2-.8.4-.4.7.4 1.2.1 1.2-.8s.5-1.6 1-1.6c.6 0 1-.6 1-1.4 0-.7.7-1.9 1.5-2.6.8-.7 1.2-1.7.8-2.3-.3-.5-.1-.7.5-.3.5.3 1.3 0 1.5-.6 1.5-3.8.4 2.4-1.2 6.9-1 2.9-1.6 5.4-1.3 5.7.3.3 0 .6-.7.6-.8 0-1.1.7-.7 1.5.3.8.2 1.5-.3 1.5-.4 0-.8.6-.9 1.2-.3 3.5-.8 5.4-1.4 5.8-.4.3-1 1.7-1.2 3-.2 1.4-.6 2.7-.7 3-.1.3-.3.9-.3 1.5-.1.5-.8 2.1-1.5 3.4-.7 1.3-.8 2.1-.3 1.7.6-.3.5.6-.3 2.1-.7 1.6-1.6 4.4-1.9 6.3-.3 1.9-.8 4.6-1.1 6-.9 4.3-1.8 13.3-1.7 18 0 4.5.9 14.5 1.2 14.5.1 0 .4 1.3.6 3 .3 1.6.9 3.5 1.5 4.1.5.6.6 1.4.2 1.7-.3.4-.1.7.5.7s.9.7.6 1.5c-.4.8-.1 1.5.6 1.5.6 0 .8.4.5 1-.3.5-.1 1 .5 1s.9.4.5 1c-.3.5.2 1.8 1.2 2.8 1 1 1.9 2.5 2.1 3.3.2.8.8 1.5 1.3 1.7.5.2.9 1 .9 1.7s.7 1.6 1.6 1.9c.9.4 1.4.9 1.1 1.2-.8.8 10.6 12.4 12.1 12.4.7 0 1.2.4 1.2.8s1.4 1.6 3.1 2.6c2.2 1.3 2.9 1.4 2.4.5-.5-.8.1-.5 1.3.5 1.2 1.1 2.2 1.6 2.2 1.1 0-.4.6-.3 1.3.3.6.5 2.4 1 4 1.1 1.5.1 3.5.2 4.5.3 2.8.1 8.5-1.2 9.9-2.4.7-.6 1.3-.7 1.3-.2 0 .5.7 0 1.6-1.1.8-1.1 1.7-1.8 2-1.6 1.2.8 6-3.2 17.4-14 3.8-3.6 7.2-6.4 7.5-6.1.3.3.5-.2.5-1.1 0-1 .6-1.6 1.3-1.5.6.2 1.1-.3.9-1-.1-.6.4-1.1 1-1 .7.2 1.1-.4 1-1.2-.2-.8 0-1.2.4-.8.8.9 11-8.2 10.6-9.5-.1-.4.3-.7 1-.7 1.4 0 9.8-8.6 9.8-10.1 0-.6.5-.7 1-.4.6.3 1 .2 1-.3 0-.4 1-1.9 2.3-3.2 1.2-1.4 2.1-2.8 1.9-3.2-.1-.5.1-.7.5-.6.5.2.9 0 1.1-.4.2-.4 1.6-2.1 3.3-3.9 1.6-1.7 2.9-3.8 2.9-4.7 0-.8.3-1.2.7-.9 1.1 1.2 8.6-12 7.7-13.5-.4-.6-.3-.8.3-.5.6.4 1.4-.7 1.8-2.6 1.1-4.4 1.5-14.6.6-15.2-.4-.2-3.8 2.7-7.4 6.5-3.7 3.7-6.7 6.6-6.7 6.2 0-.3-1.3.7-3 2.3-1.6 1.5-2.7 3.3-2.3 3.8.3.6.2.7-.4.4-.5-.3-4 2.3-7.7 5.9-3.7 3.6-6.4 5.9-6 5.2.6-1 .4-1-.9.1-.9.7-1.4 1.7-1.1 2.2.3.5 0 .8-.8.7-.7-.2-1.2.3-1 1 .1.8-.2 1.1-.7.8-.4-.3-2.5 1-4.5 2.9-2.1 1.9-4.2 3.5-4.7 3.5-.6 0-.7.4-.4 1 .3.5 0 1-.7 1s-3.4 2-6 4.4c-2.5 2.5-4.9 4.2-5.2 3.9-.3-.4-.6-.1-.6.5 0 .7-.6 1.2-1.3 1.2-.7 0-2 .8-2.9 1.7-2.6 2.8-4.6 4.3-5.8 4.3-.6 0-.9.4-.6.9.3.5-.8 1.4-2.4 2-1.7.5-3.3 1.7-3.6 2.5-.3.9-.9 1.4-1.3 1.2-.4-.3-1.8.5-3.1 1.6-1.4 1.1-1.9 1.6-1.1 1.2 1-.5 1.2-.3.7.5-.5.7-1.1 1-1.4.7-.3-.3-1.1-.1-1.9.5-2.2 1.9-11.3 1.9-14.2.1-3.9-2.5-4.9-3.7-5.7-6.6-.3-1.4-1-2.9-1.5-3.1-.4-.3-.6-1.2-.3-1.9.3-.8.1-1.6-.4-2-1.3-.8-.3-18 1.2-20.4.4-.7.5-1.6.2-2-.3-.5.1-3.3.9-6.2.8-3 1.3-5.6 1-5.8-.2-.2.3-2 1.1-3.9.9-1.9 1.3-3.8 1-4.1-.3-.3-.1-1.1.4-1.7.6-.7 1.1-2.4 1.2-3.9.1-1.4.6-2.6 1.1-2.6.5 0 .7-.6.4-1.3-.2-.6.4-3.1 1.4-5.5 1-2.3 1.7-4.2 1.5-4.2-.3 0 .9-3.4 2.5-7.6 1.6-4.2 2.6-8 2.3-8.6-.4-.7-.2-.8.4-.4 1 .6 1.5-1.1 1.1-4 0-.4.4-1 1.1-1.4.6-.4 1.2-1.3 1.3-2.1.2-.8.6-2 1-2.7.5-.6.6-1.6.3-2.1-.4-.5-.1-1.1.4-1.3.6-.2 1.2-1.3 1.3-2.6 0-1.2.4-2.2.7-2.2.4 0 1.3-2.3 2-5 .7-2.8 1.8-5 2.3-5 .5 0 .7-.7.3-1.5-.3-.8-.1-1.5.5-1.5s.9-.6.7-1.2c-.3-.7.1-1.9.9-2.6.7-.8 1.1-1.8.8-2.3-.4-.5-.1-.9.5-.9s.8-.5.5-1c-.3-.6-.1-1 .5-1 .7 0 1-.7.6-1.5-.3-.8-.1-1.5.5-1.5s.8-.4.4-.9c-.3-.5-.1-1.2.5-1.6.6-.4.8-1.1.5-1.6-.4-.5-.1-.9.5-.9.7 0 1-.7.6-1.5-.3-.8-.1-1.5.4-1.5.6 0 .9-.3.9-.8-.1-.4 0-.9.1-1.2 1.2-3.2 1.9-11 1-11-.6 0-.9-.5-.7-1.1.5-2.3-5.6-4.6-11.8-4.4-6.4.2-13.4 1.3-15 2.3-.5.4-1.9.8-3 .9-1.1.2-2.2.8-2.3 1.3-.2.6-.8.7-1.4.4-.6-.4-1.4 0-1.9.7-.4.8-1.2 1.4-1.6 1.4-1.4 0-8.3 4.6-8.3 5.6 0 .5-.7.9-1.5.9-2 0-22.6 21-21.8 22.2.3.6.2.8-.4.5-.5-.3-1.6.4-2.4 1.5-.8 1.2-2.2 2.8-3.1 3.6-.9.9-1.5 1.9-1.2 2.4.3.4-.3.8-1.2.8-1 0-1.5.3-1.1.6.3.3-1 2.1-2.9 3.9-1.9 1.8-3.4 3.7-3.4 4.1 0 .3-1 1.7-2.2 2.9-4 3.8-8.3 8.8-7.1 8.1.7-.4-1.2 1.8-4.3 4.8-3.3 3.3-5.2 6.1-4.8 6.8.4.7.3.8-.5.4-.7-.4-1.8.5-2.9 2.3-.9 1.7-2.1 3.1-2.5 3.1-.5 0-.5.6-.1 1.2.4.7.4 1-.1.6-.4-.4-1.5-.2-2.3.5-1.3 1-1.4.9-.3-1.1.6-1.2.9-2.7.6-3.2-.3-.6-.1-1 .5-1s.9-.4.5-.9c-.3-.5 0-1.3.6-1.6.5-.4.8-1.3.5-2.1-.3-.8-.2-1.4.3-1.4.7 0 3.6-8 3.2-8.8-.1-.1.6-1.6 1.4-3.2.9-1.7 1.3-3.5 1-4-.3-.6-.1-1 .5-1s.8-.5.5-1c-.3-.6-.1-1 .5-1 .7 0 1-.7.6-1.5-.3-.8-.1-1.5.5-1.5s.8-.4.4-.9c-.3-.5 0-1.3.6-1.6.5-.4.8-1.3.5-2.1-.3-.8-.1-1.4.5-1.4s.8-.7.5-1.6c-.3-.8-.2-1.2.4-.9.9.5 1.5-2.3 1.1-4.8 0-.4.3-.7.8-.7s1.2-1.1 1.5-2.5c.3-1.3 1.1-3.7 1.8-5.2.6-1.5 1.2-3 1.2-3.3.1-.3.5-1.1.9-1.8.5-.6.5-1.7.1-2.4-.5-.7-.3-.8.6-.3 1 .6 1.2.4.7-.8-.3-1-.3-1.7.1-1.7 1.1 0 3.2-6.1 2.5-7.3-.4-.6-.1-.7.7-.2 1 .6 1.2.4.7-.8-.3-.9-.3-1.7.1-1.9 1.4-.6 4.2-8 3.6-9.1-.4-.7-.3-.9.1-.4.7.6 4.9-9.3 6-14.3.2-.8.7-2.8 1.1-4.5.4-1.6.8-4.1 1-5.5.1-1.4.3-2.5.4-2.5.7 0 .5-12.7-.1-13.1-.5-.2-.6-1.1-.3-1.8.3-.8 0-1.7-.5-2.1-.6-.3-.9-1-.6-1.5.8-1.3-2.4-6-4.1-6-.7 0-1.7-.7-2.2-1.6-.5-.9-2.1-1.7-3.5-1.7-1.5-.1-2.7-.5-2.7-.8 0-.6-14.8-.8-15.4-.2zm-59.6 79.7c0 .2-.8 1-1.7 1.7-1.6 1.3-1.7 1.2-.4-.4 1.3-1.6 2.1-2.1 2.1-1.3zm-26 26c0 .2-.8 1-1.7 1.7-1.6 1.3-1.7 1.2-.4-.4 1.3-1.6 2.1-2.1 2.1-1.3zm90 21c0 .2-.8 1-1.7 1.7-1.6 1.3-1.7 1.2-.4-.4 1.3-1.6 2.1-2.1 2.1-1.3zm151 36c0 .2-.8 1-1.7 1.7-1.6 1.3-1.7 1.2-.4-.4 1.3-1.6 2.1-2.1 2.1-1.3zM1939 1435c0 .4-.8.7-1.7.5-1-.1-2.2 0-2.8.4-.5.3-1.2.6-1.5.6-2.1 0-9.8 4.1-9.3 4.8.3.6.1.7-.5.3-.6-.4-2.4.6-4 2.1-2.8 2.8-7.8 10.3-6.8 10.3.3 0-.1 1.5-.8 3.2-1.8 4.6-1.3 12.4 1.3 19 1.2 3.2 6.3 8.8 8 8.8.7 0 1 .4.7.9-.5.8 2.9 2.5 4.7 2.2.4-.1.7.4.7 1 0 .5.4.8.9.5.5-.4 1.1-.2 1.3.4.1.5 1.2 1.1 2.3 1.3 1.1.2 2.8.7 3.8 1.2 1 .4 2.1.5 2.4.1.3-.3 1.2-.1 2 .5.7.6 1.3.8 1.3.3s.4-.3.9.4c.4.7 1.4 1.5 2.2 1.6 2.7.5 6.7 2.5 7.4 3.6.3.5 1.1.8 1.6.5.5-.4.9-.1.9.4 0 .6.7 1.1 1.6 1.1.8 0 1.3.4.9.9-.3.5 0 1.5.7 2.3 1.3 1.3 1.9 8.8.8 9.8-.3.3-1 1.4-1.6 2.5-.6 1.1-2.8 3.2-4.8 4.6-3.2 2.1-4.9 2.5-10.4 2.5-3.7-.1-7.3-.5-8.1-1-1.1-.7-1.2-.6-.6.5.5.9.2.8-1.1-.3-1-.9-2.6-1.8-3.4-2-.8-.2-2.9-1.8-4.8-3.7l-3.3-3.5-2.2 2.4c-1.2 1.2-1.6 1.9-.8 1.5.9-.5 1.2-.4.7.3-.4.7-1.1 1.2-1.7 1.2-.5 0-2.6 1.7-4.8 3.8-3.5 3.4-3.7 3.9-2.2 5.2.8.8 1.9 1.4 2.3 1.3.5-.2.7.3.5 1-.1.6.4 1.1 1.1 1 .6-.2 1.2.2 1.2.7 0 .6.6 1 1.4 1 .8 0 1.6.4 1.8.9.2.5 1 1.1 1.8 1.3.8.2 1.8.6 2.1 1.1.3.4 2 .9 3.7 1 1.8.1 3.2.5 3.2 1 0 .4 1.1.5 2.5.3 1.4-.3 2.5-.1 2.5.4 0 .8 10.9.6 16-.3 4.8-.8 11-3 11-3.9 0-.5.4-.7.8-.4 1.3.8 7.9-5.1 11.4-10.1 1.7-2.5 2.5-4.2 1.7-3.8-.8.5-.6-.1.4-1.3 1.1-1.1 1.6-2.5 1.3-3.1-.4-.5-.3-1.2.2-1.5.8-.5.8-10.7 0-13.6-.2-.8-.8-2.9-1.2-4.6-.8-3.4-10.1-12.9-11.6-11.9-.6.4-1 .2-1-.3 0-.9-6.3-3.7-6.6-3 0 .2-.8-.3-1.7-1.1-.9-.7-2.4-1.1-3.2-.7-.8.3-1.5.1-1.5-.4 0-.4-1.5-1.2-3.2-1.5-1.8-.4-3.8-1.2-4.5-1.7-.7-.5-1.8-.6-2.4-.2-.8.4-.9.3-.5-.4.6-1.1-1.3-1.7-3.7-1.3-.5.1-.6-.3-.3-.8.6-.9-2.2-2.6-3.7-2.2-.5.1-.6-.2-.3-.7.3-.5-.1-1.7-.8-2.7-1.7-2.4-.8-10.6 1.2-11.3.7-.2 1-.7.7-1.2-.5-.7 5.3-4 8.5-4.8 4.4-1.1 14.4 0 16.5 1.8.8.7 1.5.9 1.5.6 0-.4 1.3.7 2.8 2.4 2.5 2.7 3 2.9 4.2 1.5.7-.8.9-1.5.4-1.5s.5-.9 2.1-2c1.7-1.1 2.6-2 2.2-2-.4 0 .8-1.4 2.8-3.1 3.5-3.1 3.5-3.2 1.8-5.2-1.8-2-8.1-5.2-9.5-4.9-.5.1-.8-.3-.8-1 0-.6-.3-.9-.6-.5-.3.3-1.8.1-3.3-.5-3.3-1.3-21.1-2-21.1-.8zM2107.4 1435.1c-1.1.3-2.2.5-2.6.2-.5-.2-.8.1-.8.7s-.4.8-1 .5c-.5-.3-1.6-.3-2.2.2-.7.4-1.9.8-2.7 1-.8.1-2.7 1.1-4.2 2.2-1.6 1.2-3.1 2.1-3.4 2.1-.7 0-4.5 3.9-4.5 4.6 0 .4-.8 1.3-1.7 2.1-1.2 1-1.3 1.2-.3.8 1.2-.5 1.2-.4-.1.7-1.8 1.5-4.1 7.6-3.4 8.8.3.5.1 1.1-.3 1.4-1.7 1.1-.2 11.7 2.3 16.7 2 3.8 8.3 9.9 10.3 9.9.6 0 1.2.4 1.2 1s.3.9.8.8c.4-.1 1.7.3 2.8 1 1.2.6 2.4.8 2.8.5.3-.3.6 0 .6.7s.3 1.1.6.8c.3-.4 2.1 0 4 .8s4 1.2 4.6.8c.7-.4.8-.3.4.4-.6 1.1 1.9 1.8 4.7 1.3.4 0 .7.2.7.7 0 .4 1.3 1.3 2.8 2 2.7 1.1 5.4 3.4 7.7 6.4.6.7 1 3.5 1 6.1 0 4.2-.4 5.3-3.2 7.7-1.7 1.6-2.9 3.1-2.5 3.5.4.3-.2.3-1.2-.1-1.3-.5-1.7-.4-1.2.4s.2 1-.8.6c-.9-.3-1.6-.2-1.6.4 0 1.3-12.8.9-16.3-.6-1.6-.7-3-1.2-3.2-1.2-.2 0-2.1-1.5-4.1-3.4-4.2-3.8-6.3-3.6-8.6.9-.7 1.3-1.7 2.5-2.3 2.6-.5.2-2.3 1.6-4 3.3-1.6 1.6-2.3 2.4-1.4 1.8 1.3-1 1.5-.8 1.5 1-.1 3.6 11.9 10.1 21.4 11.5 9.4 1.4 19.5.5 27-2.4.8-.4 1.8-.5 2.3-.5.4.1.7-.3.7-.8 0-.6.5-1 1.1-1 1.6 0 8.9-6.3 8.9-7.8 0-.6.4-1.2.9-1.2s1.2-1 1.6-2.3c.4-1.2.8-2.4 1-2.7.1-.3.6-1.4 1.1-2.5 1.3-3 1-18.3-.4-19.7-.7-.7-1.2-1.8-1.2-2.6s-.9-2.5-2-3.9-2-2.2-2-1.8c0 .4-.9-.4-2.1-1.9-1.8-2.3-9.3-6.5-12.4-7-.5-.1-1.6-.5-2.2-.9-.7-.5-1.7-.5-2.3-.2-.5.3-1 .1-1-.5s-.4-.9-.9-.5c-.5.3-1.3 0-1.6-.6-.4-.5-1.3-.8-2.1-.5-.8.3-1.4.1-1.4-.5s-.4-.8-.9-.4c-.5.3-1.3 0-1.6-.6-.4-.5-1.4-.8-2.2-.5-.8.3-1.1.1-.8-.4.3-.6 0-1-.7-1-.8 0-2.9-1.1-4.8-2.5s-3-2.5-2.6-2.5c.5 0 .3-.6-.3-1.4-1.6-1.9-1.7-6.6-.3-9.3.6-1.1.8-2.4.4-2.9s-.3-.6.2-.2c.5.4 2-.5 3.4-2s2.7-2.6 2.9-2.4c.2.2 2 0 4-.4 6.8-1.3 7.7-1.2 17.6 2.2.9.4 1.7 1 1.7 1.5s.6.9 1.4.9c.8 0 1.8.5 2.2 1.2.5.7.3.8-.6.3-.9-.6-1.1-.4-.5.4.5 1 1.3.7 3-1 1.2-1.3 2-2.7 1.8-3.2-.2-.4.3-.7 1.1-.7.9 0 1.6-.4 1.6-.8 0-.5 1.4-2.3 3.1-4 3.1-3.2 3.1-3.3 1.3-4.8-3.2-2.5-7.1-4.4-7.8-3.7-.3.4-.6.1-.6-.6 0-.8-.6-1.1-1.6-.7-1 .4-1.3.2-.8-.6s.2-.9-.9-.5c-.9.3-1.9.1-2.3-.4-.3-.6-1.5-.9-2.5-.6-1.1.3-1.9.2-1.9-.2 0-.9-15.2-.9-17.6 0z"/><path d="M1237.8 1436.5s-.2 22.6-.3 50.2l-.2 50.3H1306v-15.6h-25.7l-25.8.1.1-14v-14l22-.1c12-.1 22.5-.2 23.2-.3.8-.1 1.2-2.4 1.2-7.9v-7.7l-23 .1c-12.6 0-23-.2-23.1-.5-.3-3.2-.3-23.5.1-24 .3-.4 11.3-.7 24.5-.7h24l.1-7.9.1-8h-65.9zM1325.1 1437c-.4.3-.7 22.9-.7 50.2v49.8h17.2l-.1-38.5c0-21.2.3-38.5.8-38.5.4 0 .7.5.7 1.1 0 .5.5.7 1.2.3.7-.4.8-.3.4.4-.4.6.2 1.9 1.3 2.9 1.1.9 1.8 2 1.5 2.5-.3.4-.2.8.3.8.4 0 1.4 1.4 2.1 3 .8 1.7 1.8 2.7 2.4 2.4.6-.4.8-.2.5.3-.4.6.2 2.2 1.3 3.6s2 2.9 2 3.5c0 .5 1.1 2.1 2.5 3.6 1.3 1.4 2.5 3 2.6 3.4.4 1.4 5.2 8.7 6.3 9.4.6.4.7.8.3.8-.4 0-.3.6.3 1.2.6.7 2.5 3.5 4.2 6.3 6.2 9.9 9.9 15.4 11.1 16.7.6.8 1.3 2 1.5 2.8.2.8.8 1.6 1.3 1.8.5.2.9.9.9 1.6 0 .7.8 2.1 1.8 3.2 1 1 2.1 2.7 2.5 3.6.6 1.6 2.1 1.8 12 1.8h11.3v-50c0-27.5-.2-50-.5-50.1-1.7-.3-14.8-.4-15.7-.2-.7.3-1 11.8-1 36.4.1 19.9-.2 36.6-.6 37.2-.6.9-.8.8-.8-.1 0-.8-.5-1-1.2-.6s-1 .4-.6 0c.7-.9-3.9-8.8-7.2-12.4-1.1-1.2-1.8-2.2-1.4-2.2.4 0 .1-.8-.7-1.8-.8-.9-2.1-2.9-2.8-4.4-.8-1.5-1.8-2.5-2.3-2.2-.4.3-.8-.4-.8-1.5 0-1.2-.4-2.1-1-2.1-.5 0-1-.7-1-1.5 0-.9-.7-1.8-1.5-2.1-.8-.4-1.2-1-.9-1.5.3-.5 0-.9-.5-.9-.6 0-1.1-.7-1.1-1.5s-.4-1.5-1-1.5c-.5 0-1-.6-1-1.4 0-.7-1.2-2.6-2.7-4.1-1.6-1.6-2.3-2.5-1.6-2.2 1.3.8-12.6-20.4-14.2-21.5-.5-.4-.6-.8-.2-.8.7 0 0-1-3-4.4-.7-.8-.9-1.6-.6-2 .7-.7.7-.7-12.5-.9-5.7-.1-10.7 0-11.1.3zM1427.9 1437.2c-.5 3.6-.3 13.5.2 14.3.4.6 6.8 1 15.6.9h14.9v84.1l8.7.3 8.7.3.2-42.3.3-42.3h15l15-.1v-15.8h-39.3c-21.5-.1-39.2.2-39.3.6zM1520.4 1437.1c-.3.5-.6 68.8-.4 96.1v3.8h8.5c8.1 0 8.5-.1 8.6-2.3.1-1.2.2-10.8.3-21.2l.1-19 6.8-.1c3.7-.1 6.7.2 6.7.6 0 .3.9 1.6 2 2.8 1.1 1.2 2 2.5 2 2.9 0 1.8 1.2 4.3 1.9 3.9.4-.3.8.5.8 1.6.1 1.1.8 2.8 1.5 3.7.8.9 2 2.9 2.8 4.6.8 1.6 1.7 3.2 2 3.5.3.3 1.9 3.2 3.6 6.5 1.7 3.3 4 7.5 5 9.2l1.9 3.3h10.3c6.1 0 10.2-.4 10.2-1s-.3-1-.7-1c-.5 0-1.9-2.3-3.2-5-1.4-2.7-2.9-4.6-3.4-4.3-.6.3-.7.1-.4-.4.4-.6-.4-2.7-1.8-4.7s-2.5-4.1-2.5-4.6c0-.6-.4-1-1-1-.5 0-1-.7-1-1.5s-.5-1.5-1.1-1.5c-.5 0-.7-.5-.4-1 .3-.6-.1-1.3-.9-1.6-.9-.3-1.4-1-1.1-1.4.3-.5-.5-1.9-1.7-3.1-1.3-1.2-1.6-1.8-.8-1.3.8.4.3-.8-1.2-2.8-1.6-2-2.8-4.2-2.8-4.8 0-.6-.4-.9-.8-.6-.4.2-.8-.4-.8-1.5 0-1 .5-1.9 1.1-2 3.9-.3 9.5-2.6 9.5-3.9 0-.6.4-.9.9-.6 1.2.8 6.3-3.3 5.6-4.5-.4-.5-.1-.9.5-.9 1 0 2.8-3.5 3.5-7 .2-.8.4-1.5.6-1.5.1 0 .3-.9.4-2 1.3-8.9-.7-21.5-3.5-21.5-.5 0-.9-.6-.8-1.3.2-.6-.3-1.1-.9-1-.7.2-1.3-.2-1.3-.8 0-2.4-9.4-7.7-14.6-8.4-1.6-.2-2.9-.4-2.9-.6 0-1-46.5-1.8-47.1-.8zm41.4 14.9c.3.4 2 .7 3.7.9.8 0 2.9 1.4 4.6 2.9 2.9 2.6 3.2 3.5 3.2 8.3 0 7.7-.5 9.8-2.5 10.5-1 .3-1.5 1-1.2 1.6.4.6.2.8-.4.4-.6-.3-1.6-.1-2.4.6-1.7 1.6-2.8 1.8-17.4 2.1l-12 .2.1-13.5c.1-7.4.3-13.7.3-14 .2-.5 23.4-.4 24 0zM1611 1436.8c-.6.2-1 17.9-1 50.3v49.9H1678.7v-7.8l-.1-7.8h-25.5l-25.6-.1v-27.8h46.2l-.2-7.5c-.2-4.1-.3-7.7-.4-8 0-.3-9.7-.4-21.3-.3-11.7 0-22-.1-22.9-.3-1.4-.4-1.6-2.2-1.6-12.4.1-6.6.3-12.1.6-12.1.3-.1 11.2-.3 24.1-.4 12.9-.2 23.7-.3 24-.4.4-.1.5-13.3.1-15.1-.1-.5-63.5-.7-65.1-.2zM1698.1 1437c-.4.3-.7 22.9-.7 50.2v49.8h17.2v-20.5c-.1-11.3.1-20.6.4-20.6.3-.1 3.9-.3 8-.4 10.8-.3 21.9-1.4 23.9-2.4.9-.5 2.2-.6 2.9-.4.6.3 1.2 0 1.2-.6s.3-1 .8-.9c1.6.3 6.1-2.2 7.6-4.4.9-1.2 1.6-1.8 1.6-1.3.1 1.1 1.8-1.5 1.9-2.8 0-.4.7-1.5 1.6-2.3.8-.9 1.6-2.2 1.6-3 .2-1.7.6-3.3.9-3.7.6-.6.5-14.7-.1-14.7-.4 0-.5-.9-.2-2s0-2-.6-2-1-.3-1-.8c.1-.4.1-1.2 0-1.9-.1-1.6-7.5-9.3-8.8-9.3-.6 0-1.3-.5-1.5-1.1-.2-.5-1-1.1-1.8-1.2-.8-.2-2-.6-2.6-.9-1.1-.8-4.6-1.5-10.9-2.5-5-.7-40.4-1-41.4-.3zm41.8 15.9c1.2.7 2.1.9 2.1.6 0-.3 1 .3 2.2 1.5 1.2 1.1 2.6 2 3.2 2 .5 0 .6.3.3.7-.4.3.1 1.2 1.1 2 1 .9 1.1 1.1.2.7-1.2-.6-1.3-.5-.4.7s1 6.9.2 11.1c-.2.7-1.3 2-2.6 2.9-1.2.8-1.9 1.9-1.5 2.4.5.4.3.5-.4.2-.6-.4-1.7-.2-2.5.5-1.6 1.6-3.6 1.8-16.8 2.1l-10.4.1-.1-12.9c0-7.2.1-13.7.3-14.5.3-1.3 2.2-1.5 11.7-1.4 6.2.1 12.2.7 13.4 1.3zM1785.1 1437c-.4.3-.7 22.9-.7 50.2v49.8H1801.7l-.1-21.3-.1-21.3h6.9c4.6.1 7.1.5 7.4 1.4.2.6.8 1 1.3.7.5-.4.6.1.3.9-.3.9-.1 1.6.5 1.6s1.1.5 1.1 1c0 .6 1.1 2.8 2.5 5s2.2 4 1.8 4c-.5 0-.3.4.2.8.6.4 2 2.5 3.1 4.7 1.2 2.2 3.8 6.9 5.8 10.5 2 3.6 4.1 7.7 4.7 9.1 1 2.7 1.1 2.7 12.2 2.7 6.2.1 10.6-.1 9.9-.4-.6-.3-1-1-.6-1.5.3-.5 0-.9-.5-.9-.6 0-1.1-.7-1.1-1.6 0-.8-.5-1.2-1-.9-.6.4-.9.3-.8-.2.4-1.7-1.4-5.3-2.4-4.7-.7.5-.9.1-.5-.9.3-1 .2-1.7-.3-1.7-.6 0-1-.6-1-1.3 0-.7-.9-2.3-1.9-3.4-1.1-1.2-1.7-2.3-1.4-2.7.3-.3-.2-.8-1.1-1.2-.9-.3-1.4-1-1.1-1.4.3-.5-.5-1.9-1.7-3.1-1.3-1.2-1.7-1.8-.9-1.4.7.4.3-.7-1-2.6-1.3-1.9-2.7-3.6-3.2-3.7-.4-.2-.5-.8-.1-1.3.3-.5 0-.9-.5-.9-.6 0-1.1-.7-1.1-1.5s-.4-1.5-1-1.5-.9-.3-.8-.8c.1-.4-.4-1.8-1.1-3.1-.7-1.3-.8-2.1-.3-1.7.6.3 1.3.2 1.7-.3.3-.6 1.2-.8 2-.4.8.3 1.5 0 1.5-.6s.3-1 .8-1c2.3.4 4.2-.6 8.2-4.2 2.5-2.3 3.8-3.8 3-3.4-.8.4-.4-.2.9-1.3 1.3-1 2.1-2.4 1.7-3-.3-.6-.1-1.2.4-1.4 1.4-.4 2.4-6 2.2-12.6-.2-7-.4-8.2-1.4-8.2-.5 0-.6-.5-.3-1 .4-.6-.1-2.2-1-3.6-2.2-3.4-7.5-8.9-7.5-7.9 0 .5-.6.1-1.3-.9-.7-.9-1.9-1.8-2.7-1.9-.8-.2-1.9-.5-2.5-.8-1.2-.8-4.9-1.7-10.1-2.5-4.7-.8-43.3-1.1-44.3-.4zm43.6 15.2c1.2.1 2 .5 1.7.9-.3.6 2.6 1.9 5.1 2.3.6 0 1 .5 1 1.1 0 .5.4 1.6.8 2.2.5.7.8 3.4.8 6-.1 7-.3 8.3-1.3 7.7-.4-.3-.8.1-.8 1 0 .8-1.3 2-3 2.8-1.6.7-3 1.5-3 1.8 0 .8-1.9.9-15.9 1.2l-12.4.2-.2-12.9c0-7.2 0-13.5.2-14 .3-.8 18.6-1 27-.3zM1876.3 1436.8l-2.3.3v99.9h8.5c6.1 0 8.5-.4 8.6-1.3.4-5.3.4-96.5-.1-97.7-.4-1.1-2.1-1.5-6.5-1.5-3.3 0-7 .1-8.2.3zM1996.4 1436.9c-.2.2-.4 22.9-.4 50.3v49.8H2064.7l-.1-7.8v-7.9l-24.9.1c-13.7.1-25.2-.1-25.6-.4-.4-.3-.7-6.6-.7-14l.1-13.5h23l23-.1.1-6.4c.3-10.4 2.3-9.5-22.3-9.4-12 0-22.3-.1-22.9-.3-.7-.3-1.1-4.6-1-12.6v-12.3h24.3c15.3.1 24.4-.3 24.6-.9.3-.8.1-12.4-.2-14.5-.1-.6-65.1-.7-65.7-.1z"/></svg>